<svg width="120" height="35" viewBox="0 0 120 35" fill="none" xmlns="http://www.w3.org/2000/svg">
<g clip-path="url(#clip0_106_25)">
<path d="M90.7208 8.61489C90.7208 8.61489 93.5011 12.5801 94.9052 14.4383C95.4142 15.1115 95.305 15.1237 95.8036 14.4653C97.2191 12.5984 100.035 8.61489 100.035 8.61489H104.006C104.006 8.61489 99.7453 14.5256 97.8714 17.0456C97.8318 17.0876 97.801 17.137 97.7806 17.1909C97.7602 17.2449 97.7507 17.3023 97.7527 17.36C97.7546 17.4176 97.7679 17.4743 97.7919 17.5268C97.8159 17.5792 97.8501 17.6264 97.8924 17.6656C99.8641 20.2957 103.782 26.0396 103.782 26.0396H100.052C100.052 26.0396 97.131 21.9355 95.6719 19.9988C95.3663 19.5945 95.367 19.5901 95.0483 20.0136C93.6075 21.9285 90.7321 26.0387 90.7321 26.0387H86.9512C86.9512 26.0387 90.0581 21.6893 91.6106 19.694C92.1581 18.9902 92.6942 18.2768 93.254 17.5826C93.2873 17.552 93.3138 17.5146 93.3318 17.4731C93.3497 17.4315 93.3588 17.3866 93.3583 17.3414C93.3578 17.2961 93.3478 17.2514 93.3289 17.2102C93.31 17.169 93.2827 17.1323 93.2487 17.1024C91.8621 15.3146 90.4789 13.5243 89.0992 11.7313C88.3596 10.7708 86.8804 8.61401 86.8804 8.61401L90.7208 8.61489Z" fill="white"/>
<path d="M108.815 17.3004C108.815 14.6494 108.815 11.9986 108.815 9.3482C108.815 8.63917 108.846 8.61035 109.564 8.61035H120V11.4963C120 11.4963 114.888 11.4893 112.33 11.4893C111.761 11.4893 111.76 11.4893 111.76 12.0691C111.76 13.1344 111.76 14.2 111.76 15.2659C111.76 15.8107 111.76 15.8099 112.325 15.8099C114.444 15.8099 118.699 15.8029 118.699 15.8029V18.6975C118.699 18.6975 114.502 18.6906 112.397 18.6914C111.768 18.6914 111.766 18.6914 111.765 19.3026C111.765 20.3947 111.765 21.4871 111.765 22.5798C111.765 23.1255 111.788 23.1491 112.323 23.1491C114.855 23.1491 120.007 23.1491 120.007 23.1491V26.0376C120.007 26.0376 112.924 26.0376 109.339 26.0376H108.821C108.821 23.9725 108.821 21.2813 108.821 19.2171C108.817 18.5785 108.815 17.9396 108.815 17.3004Z" fill="white"/>
<path d="M83.2594 26.0395C83.2594 26.0395 79.6234 18.2837 77.8062 14.66C76.8073 12.6638 75.8101 10.6651 74.7675 8.57642C74.3178 9.4793 73.9083 10.3132 73.4917 11.1436C71.0782 15.9741 66.2443 26.0395 66.2443 26.0395H69.7414C69.7414 26.0395 70.626 23.8242 71.0512 22.8776C71.0893 22.7472 71.172 22.6342 71.2848 22.5584C71.3976 22.4827 71.5333 22.4488 71.6685 22.4629C73.7642 22.4812 75.8537 22.4768 77.945 22.4629C78.0618 22.451 78.1793 22.4765 78.2807 22.5356C78.382 22.5948 78.462 22.6846 78.5091 22.7921C79.033 23.7631 80.1141 26.0369 80.1141 26.0369L83.2594 26.0395ZM72.9556 19.267L74.7657 15.0695L76.8614 19.2067L72.9556 19.267Z" fill="white"/>
<path d="M52.4337 23.0653C53.526 23.0653 54.6263 23.1482 55.71 23.0461C56.5418 22.9569 57.3391 22.6653 58.0322 22.1968C58.7252 21.7283 59.2929 21.097 59.6856 20.3584C60.4875 19.0489 60.7465 17.4781 60.4075 15.9806C60.0684 14.483 59.158 13.177 57.8703 12.3407C56.9573 11.7533 55.8846 11.4638 54.8001 11.512C52.9874 11.5234 49.2719 11.5225 49.2719 11.5225V8.60076C49.2719 8.60076 53.086 8.54489 54.9878 8.62871C56.2484 8.66842 57.4853 8.98127 58.6132 9.54567C59.7411 10.1101 60.733 10.9126 61.5205 11.8977C62.308 12.8829 62.8722 14.0272 63.1743 15.2517C63.4763 16.4762 63.509 17.7517 63.2701 18.9901C63.0098 20.3228 62.4342 21.5739 61.5916 22.6388C60.7489 23.7037 59.6637 24.5514 58.4265 25.1112C57.117 25.7501 55.6744 26.0686 54.2177 26.0403C52.6189 26.0298 49.2719 26.0403 49.2719 26.0403V23.0644C49.2719 23.0644 51.4217 23.0757 52.4346 23.0757L52.4337 23.0653Z" fill="white"/>
<path d="M17.4639 0L0 17.4639L17.4639 34.9279L34.9279 17.4639L17.4639 0ZM18.1625 10.7639L24.8625 17.4639L18.1625 24.1649V10.7639ZM16.7654 24.1649L10.0645 17.4639L16.7654 10.7639V24.1649ZM18.1625 26.1444L26.8421 17.4648L18.1625 8.78524V2.67984L32.9466 17.4639L18.1625 32.2489V26.1444ZM16.7654 2.67984V8.78436L8.08582 17.4639L16.7654 26.1444V32.2489L1.98042 17.4639L16.7654 2.67984Z" fill="white"/>
</g>
<defs>
<clipPath id="clip0_106_25">
<rect width="120" height="34.9279" fill="white"/>
</clipPath>
</defs>
</svg>
