<svg width="120" height="25" viewBox="0 0 120 25" fill="none" xmlns="http://www.w3.org/2000/svg">
<path d="M20.6491 8.84985C24.7415 8.84985 28.0237 12.1528 28.0237 16.2453C28.0237 20.3377 24.7415 23.5991 20.6491 23.5991C16.5566 23.5991 13.2952 20.3377 13.2952 16.2453C13.316 12.1528 16.5566 8.84985 20.6491 8.84985ZM20.6491 20.3169C22.8926 20.3169 24.7415 18.468 24.7415 16.2453C24.7415 14.0017 22.8926 12.1321 20.6491 12.1321C18.4263 12.1321 16.5775 14.0017 16.5775 16.2453C16.5775 18.468 18.4263 20.3169 20.6491 20.3169Z" fill="#1D1E1B"/>
<path d="M31.638 12.0697H28.0441C27.8156 12.0697 27.6495 11.8828 27.6495 11.6751V9.45228C27.6495 9.24454 27.8156 9.05762 28.0441 9.05762H38.3478C38.5763 9.05762 38.7425 9.24454 38.7425 9.45228V11.6751C38.7425 11.8828 38.5763 12.0697 38.3478 12.0697H34.8578V22.9967C34.8578 23.2044 34.6709 23.3914 34.4632 23.3914H32.0119C31.8041 23.3914 31.6172 23.2044 31.6172 22.9967V12.0697H31.638Z" fill="#1D1E1B"/>
<path d="M44.5385 12.0697H41.277C41.0485 12.0697 40.8823 11.8828 40.8823 11.6751V9.45228C40.8823 9.24454 41.0485 9.05762 41.277 9.05762H51.5599C51.7884 9.05762 51.9547 9.24454 51.9547 9.45228V11.6751C51.9547 11.8828 51.7884 12.0697 51.5599 12.0697H47.7791V22.9967C47.7791 23.2044 47.5922 23.3914 47.3844 23.3914H44.9331C44.7255 23.3914 44.5385 23.2044 44.5385 22.9967V12.0697Z" fill="#1D1E1B"/>
<path d="M57.3973 16.4945L52.8687 9.66003C52.7025 9.39 52.8687 9.05762 53.2011 9.05762H55.8601C56.0263 9.05762 56.1302 9.16149 56.1924 9.24454L59.0385 13.4408L61.8844 9.24454C61.9467 9.16149 62.0298 9.05762 62.2168 9.05762H64.8756C65.2083 9.05762 65.3746 9.39 65.2083 9.66003L60.6173 16.4737V22.9967C60.6173 23.2044 60.4303 23.3914 60.2225 23.3914H57.7921C57.5636 23.3914 57.3973 23.2044 57.3973 22.9967V16.4945Z" fill="#1D1E1B"/>
<path d="M22.8717 2.88778C22.8717 4.48734 21.5837 5.77531 19.9842 5.77531C18.3846 5.77531 17.0966 4.48734 17.0966 2.88778C17.0966 1.28821 18.3846 0.000243937 19.9842 0.000243937C21.563 -0.0205297 22.8717 1.28821 22.8717 2.88778Z" fill="#C2E5F1"/>
<path d="M9.11956 2.88778C9.11956 4.48734 7.83156 5.77531 6.23202 5.77531C4.63246 5.77531 3.3445 4.48734 3.3445 2.88778C3.3445 1.28821 4.63246 0.000243937 6.23202 0.000243937C7.83156 -0.0205297 9.11956 1.28821 9.11956 2.88778Z" fill="#FAD6BC"/>
<path d="M35.793 2.88778C35.793 4.48734 34.5051 5.77531 32.9055 5.77531C31.306 5.77531 30.018 4.48734 30.018 2.88778C30.018 1.28821 31.306 0.000243937 32.9055 0.000243937C34.5051 -0.0205297 35.793 1.28821 35.793 2.88778Z" fill="#E9EBA1"/>
<path d="M48.7348 2.88778C48.7348 4.48734 47.4469 5.77531 45.8473 5.77531C44.2478 5.77531 42.9597 4.48734 42.9597 2.88778C42.9597 1.28821 44.2478 0.000243937 45.8473 0.000243937C47.4469 -0.0205297 48.7348 1.28821 48.7348 2.88778Z" fill="#A5D4BA"/>
<path d="M61.9469 2.88778C61.9469 4.48734 60.659 5.77531 59.0594 5.77531C57.4598 5.77531 56.1719 4.48734 56.1719 2.88778C56.1719 1.28821 57.4598 0.000244141 59.0594 0.000244141C60.659 0.000244141 61.9469 1.28821 61.9469 2.88778Z" fill="#D5C8E4"/>
<path d="M5.38036 9.05762H0.394703C0.186968 9.05762 0 9.22378 0 9.45228V11.6543C0 11.9036 0.0415484 12.0282 0.332378 12.0282H5.33881C7.62394 12.0282 9.34813 13.8978 9.14038 16.183V16.2037C9.14038 18.5304 7.45771 20.3584 5.15185 20.3584H3.17836H0.290835C0.0415523 20.3584 0 20.5454 0 20.6701V22.9759C0 23.2044 0.186968 23.3914 0.394703 23.3914H5.35959C9.30654 23.3914 12.5472 20.1715 12.5472 16.2037C12.568 12.2775 9.32737 9.05762 5.38036 9.05762Z" fill="#1D1E1B"/>
<path d="M107.393 22.9358C107.393 23.1415 107.557 23.3265 107.763 23.3265H112.782C116.75 23.3265 120 20.0977 120 16.1079C120 12.1592 116.75 8.93042 112.782 8.93042H107.763C107.557 8.93042 107.393 9.1155 107.393 9.32115V22.9358ZM110.601 20.2828V11.9536H112.576C114.9 11.9536 116.586 13.7839 116.586 16.1079C116.586 18.4525 114.9 20.2828 112.576 20.2828H110.601Z" fill="#1D1E1B"/>
<path d="M92.941 22.9358C92.941 23.1415 93.1263 23.3266 93.3314 23.3266H95.7791C96.0051 23.3266 96.1695 23.1415 96.1695 22.9358V15.2648H96.1905L104.314 23.4294C104.355 23.4706 104.519 23.5322 104.581 23.5322H104.91C105.116 23.5322 105.301 23.3677 105.301 23.1621V9.32123C105.301 9.11558 105.116 8.9305 104.91 8.9305H102.443C102.216 8.9305 102.051 9.11558 102.051 9.32123V16.6221H102.031L93.8254 8.72485H93.3111C93.1054 8.72485 92.9206 8.88936 92.9206 9.09501L92.941 22.9358Z" fill="#1D1E1B"/>
<path d="M77.6146 23.3266H79.8775C80.2883 23.3266 80.5149 23.0798 80.6178 22.833L81.3581 21.1877H86.9518L87.6921 22.8125C87.8775 23.2032 88.0419 23.3266 88.4121 23.3266H90.6946C91.0032 23.3266 91.1676 23.0592 91.0445 22.7919L84.607 8.95108C84.5454 8.82765 84.4019 8.72485 84.2578 8.72485H84.0521C83.9079 8.72485 83.7638 8.82765 83.7022 8.95108L77.2654 22.7919C77.1416 23.0592 77.3067 23.3266 77.6146 23.3266ZM82.5918 18.3908L84.134 14.9974H84.1549L85.7181 18.3908H82.5918Z" fill="#1D1E1B"/>
<path d="M67.5143 22.9358C67.5143 23.1415 67.6787 23.3265 67.9048 23.3265H75.6375C75.8641 23.3265 76.0286 23.1415 76.0286 22.9358V20.6941C76.0286 20.4885 75.8641 20.3034 75.6375 20.3034H70.7429V9.32115C70.7429 9.1155 70.5581 8.93042 70.3524 8.93042H67.9048C67.6787 8.93042 67.5143 9.1155 67.5143 9.32115V22.9358Z" fill="#1D1E1B"/>
</svg>
