<svg width="60" height="60" viewBox="0 0 60 60" fill="none" xmlns="http://www.w3.org/2000/svg">
<path d="M40.2015 1.55493C40.2015 1.55493 35.5754 -0.227163 31.3524 0.0243149C27.1294 0.275793 28.0772 4.77943 31.2668 4.22853C34.4564 3.67764 32.4951 1.24026 40.2015 1.55493Z" fill="white"/>
<path d="M20.0616 2.20044C20.0616 2.20044 15.3997 3.88514 12.3546 6.84954C9.30946 9.81395 12.9317 12.6118 14.999 10.0987C17.0663 7.58557 14.0061 7.02247 20.0616 2.20044Z" fill="white"/>
<path d="M5.16834 15.6428C5.16834 15.6428 2.70184 19.9769 2.28803 24.2271C1.87422 28.4771 6.42879 28.2357 6.3882 24.9693C6.3476 21.7028 3.65631 23.2775 5.16834 15.6428Z" fill="white"/>
<path d="M2.59169 35.7012C2.59169 35.7012 3.40977 40.631 5.76144 44.1808C8.11312 47.7307 11.4816 44.6266 9.39696 42.1281C7.31238 39.6296 6.22213 42.5705 2.59169 35.7012Z" fill="white"/>
<path d="M13.1299 52.5591C13.1299 52.5591 16.9238 55.7709 20.996 56.9279C25.0682 58.0848 25.632 53.516 22.4393 52.9832C19.2467 52.4504 20.3102 55.4014 13.1299 52.5591Z" fill="white"/>
<path d="M31.9601 58.6934C31.9601 58.6934 36.9116 58.6639 40.7579 56.8861C44.6043 55.1082 42.1056 51.2565 39.33 52.9358C36.5542 54.615 39.2565 56.1703 31.9601 58.6934Z" fill="white"/>
<path d="M50.4586 51.1609C50.4586 51.1609 54.2258 47.9172 56.0321 44.0555C57.8383 40.1939 53.4688 38.8741 52.4184 41.9639C51.3679 45.0537 54.4271 44.485 50.4586 51.1609Z" fill="white"/>
<path d="M59.6643 33.5813C59.6643 33.5813 60.5268 28.6592 59.4869 24.5198C58.447 20.3803 54.244 22.1681 55.3806 25.2267C56.5172 28.2852 58.5192 25.8818 59.6643 33.5813Z" fill="white"/>
<path d="M55.6462 13.9364C55.6462 13.9364 53.1617 9.61264 49.7228 7.12546C46.2839 4.63827 44.2133 8.74057 47.0356 10.3386C49.858 11.9366 49.853 8.79645 55.6462 13.9364Z" fill="white"/>
<path d="M12.8605 26.9311C12.9025 26.9605 12.9509 26.9788 13.0014 26.9847C13.4159 27.0144 13.8302 27.0561 14.2452 27.065C14.6295 27.0961 15.0159 27.0412 15.377 26.9044C15.5278 26.8378 15.5573 26.8575 15.5495 27.0231C15.527 27.4597 15.5784 27.8968 15.7017 28.3157C15.7943 28.6918 15.9829 29.0367 16.2488 29.316C16.5147 29.5954 16.8485 29.7995 17.217 29.9079C17.7973 30.0585 18.4024 30.0849 18.9934 29.9851C19.7025 29.9029 20.4093 29.7822 21.1207 29.7397C22.1572 29.6821 23.1747 30.0387 23.9529 30.7322C24.4793 31.1848 24.9456 31.7039 25.3404 32.277C25.5854 32.7582 25.8922 33.2047 26.253 33.6048C25.6859 33.4877 25.1006 33.4939 24.536 33.6228C23.9713 33.7518 23.4404 34.0007 22.9784 34.3528C22.3802 34.7805 21.8416 35.2924 21.2651 35.7523C20.9966 35.9713 20.7112 36.1681 20.4115 36.341C20.2917 36.4119 20.151 36.438 20.014 36.415C19.8769 36.3919 19.7522 36.3211 19.6615 36.2148C19.2551 35.7856 19.0237 35.2174 19.0136 34.6237C19.0059 33.9112 19.2453 33.2184 19.6903 32.6654C19.715 32.6183 19.7497 32.5773 19.7919 32.5455C19.8343 32.5137 19.883 32.4918 19.9349 32.4815C19.9866 32.4711 20.04 32.4726 20.0911 32.4858C20.1423 32.499 20.1898 32.5235 20.2303 32.5575C20.2789 32.5818 20.3287 32.6032 20.3797 32.6217C20.3827 32.582 20.3877 32.5693 20.3836 32.5612C20.0858 31.9644 19.7116 31.4357 19.0963 31.1319C18.8771 31.0369 18.6359 31.0053 18.3999 31.0408C18.1639 31.0765 17.9424 31.1778 17.7603 31.3335C17.6252 31.4635 17.4895 31.5927 17.3565 31.725C17.249 31.832 17.145 31.9429 17.016 32.0764C17.1052 32.1039 17.1583 32.1208 17.2116 32.1367C17.3723 32.173 17.5302 32.2209 17.6841 32.2801C18.0546 32.4526 18.1146 32.6867 17.8639 33.0098C17.6883 33.2263 17.5016 33.4335 17.3046 33.6305C16.6597 34.3039 16.0011 34.9656 15.5185 35.7765C15.2755 36.1525 15.1254 36.5818 15.081 37.0285C15.073 37.1449 15.0824 37.2626 15.0838 37.3798L15.1407 37.3954L15.6103 36.8097L15.6727 36.8324C15.7363 37.613 15.6657 38.3986 15.4638 39.1548C15.5146 39.15 15.5633 39.1327 15.6059 39.1043C15.9419 38.8577 16.2857 38.6204 16.609 38.3577C16.923 38.1318 17.1838 37.8388 17.3728 37.4995C17.4457 37.3505 17.4809 37.3464 17.5806 37.4782C17.8416 37.8269 18.1597 38.1281 18.5211 38.3687C18.8317 38.5963 19.1959 38.7377 19.5775 38.7788C19.9592 38.8199 20.3448 38.7592 20.6959 38.6027C21.2361 38.3411 21.7161 37.9681 22.1048 37.5077C22.5952 36.9841 23.0591 36.4326 23.5765 35.938C24.3332 35.2204 25.3391 34.8322 26.377 34.8574C27.0528 34.8614 27.7255 34.9518 28.379 35.1266C28.869 35.3389 29.3842 35.4859 29.9117 35.564C29.4083 35.845 28.9694 36.2305 28.624 36.6949C28.2786 37.1592 28.0344 37.6921 27.9076 38.2587C27.7242 38.9752 27.6401 39.7172 27.4938 40.444C27.4289 40.7862 27.3367 41.1226 27.2184 41.4498C27.1721 41.582 27.0814 41.6937 26.9619 41.7653C26.8426 41.837 26.7021 41.8643 26.5649 41.8422C25.9799 41.7792 25.44 41.4961 25.0526 41.0492C24.5911 40.51 24.3309 39.8249 24.3172 39.1125C24.2997 38.8471 24.4014 38.7274 24.6606 38.6783C24.7133 38.6652 24.765 38.649 24.8159 38.6299C24.7927 38.5976 24.7884 38.5847 24.7801 38.5812C24.171 38.3194 23.5472 38.1595 22.8831 38.3285C22.6548 38.3986 22.4504 38.5317 22.2929 38.7126C22.1354 38.8936 22.031 39.1154 21.9914 39.353C21.9714 39.5402 21.9504 39.7275 21.9334 39.915C21.9196 40.067 21.9112 40.2194 21.898 40.4054C21.9838 40.3682 22.0352 40.3466 22.086 40.3239C22.2319 40.2469 22.3831 40.1806 22.5386 40.1257C22.9319 40.016 23.1273 40.1556 23.1426 40.5658C23.1468 40.8456 23.1367 41.1255 23.1122 41.4042C23.0503 42.3388 22.9705 43.2733 23.1204 44.2071C23.1751 44.6526 23.3351 45.0783 23.5868 45.4484C23.6551 45.5426 23.7376 45.6264 23.8135 45.7149L23.867 45.6898L23.8512 44.9365L23.9133 44.9131C24.461 45.4678 24.9094 46.1139 25.2388 46.823C25.2745 46.7863 25.3006 46.7411 25.315 46.6918C25.4139 46.2845 25.5248 45.8793 25.6037 45.4679C25.6991 45.0908 25.7108 44.697 25.6383 44.3148C25.5988 44.1534 25.623 44.1274 25.7834 44.1631C26.2058 44.2594 26.6413 44.2821 27.0712 44.2303C27.4539 44.2018 27.8226 44.0724 28.1403 43.8551C28.458 43.6379 28.7137 43.3402 28.8818 42.9919C29.1271 42.4401 29.2551 41.8424 29.2577 41.2375C29.2973 40.5181 29.299 39.7945 29.3779 39.0795C29.497 38.0384 30.0171 37.0865 30.8258 36.4294C31.2896 36.0367 31.7972 35.6998 32.3382 35.4257C32.9286 35.2696 33.493 35.0265 34.0132 34.7043C33.8072 35.2462 33.7171 35.8259 33.7487 36.4055C33.7804 36.985 33.9331 37.5513 34.1967 38.067C34.5129 38.7347 34.9214 39.3573 35.2726 40.0089C35.4409 40.3131 35.5847 40.6303 35.7027 40.9577C35.7515 41.0891 35.7532 41.2335 35.7075 41.3659C35.6617 41.4983 35.5714 41.6104 35.4524 41.6825C34.9644 42.0142 34.3706 42.1481 33.7892 42.0575C33.0923 41.9444 32.4566 41.5888 31.9921 41.0524C31.9502 41.0199 31.9161 40.9784 31.8922 40.9309C31.8684 40.8834 31.8553 40.8312 31.854 40.7779C31.8526 40.7248 31.8632 40.6718 31.8847 40.6232C31.9062 40.5746 31.9381 40.5314 31.9784 40.4969C32.0102 40.4526 32.0395 40.4066 32.0663 40.359C32.0281 40.3494 32.0165 40.3423 32.0079 40.345C31.3747 40.5401 30.7951 40.8228 30.3944 41.3834C30.2643 41.5854 30.1926 41.8201 30.1874 42.0609C30.1822 42.3018 30.2436 42.5393 30.3647 42.7469C30.4687 42.9032 30.5719 43.0602 30.6784 43.2148C30.7647 43.3401 30.8553 43.4623 30.9637 43.6133C31.0058 43.5291 31.0313 43.4792 31.0558 43.4288C31.1185 43.275 31.192 43.1262 31.2759 42.9831C31.5072 42.6437 31.7458 42.6237 32.0188 42.9278C32.2004 43.1393 32.371 43.3601 32.5299 43.5894C33.0782 44.3453 33.6125 45.1126 34.3222 45.7301C34.6481 46.0356 35.0419 46.2576 35.4705 46.3776C35.5828 46.4053 35.6993 46.4159 35.8139 46.4343L35.8387 46.3803C35.6747 46.1915 35.5107 46.0028 35.3466 45.8139L35.3793 45.7556C36.1521 45.8247 36.9072 46.0281 37.6112 46.3571C37.6151 46.3057 37.6064 46.2543 37.5859 46.2072C37.4021 45.8311 37.2288 45.4489 37.0271 45.0827C36.8597 44.732 36.6178 44.4229 36.3187 44.1773C36.1856 44.0794 36.1875 44.0438 36.3331 43.967C36.7178 43.7663 37.0657 43.5009 37.3619 43.1822C37.6368 42.9118 37.8365 42.5734 37.9413 42.2006C38.046 41.8279 38.0522 41.434 37.959 41.0581C37.795 40.4763 37.5122 39.9357 37.1287 39.4709C36.7005 38.8943 36.2407 38.3393 35.8455 37.7407C35.2733 36.8663 35.0648 35.7997 35.2653 34.7713C35.3678 34.1814 35.5371 33.6053 35.7699 33.0542C36.1487 32.5204 36.4423 31.93 36.6399 31.3044C36.8223 31.8596 37.12 32.3693 37.5129 32.7994C37.9059 33.2294 38.3851 33.57 38.9187 33.7982C39.5846 34.1078 40.2929 34.3233 40.9755 34.5977C41.2975 34.7231 41.6091 34.8743 41.907 35.0501C42.0278 35.1196 42.1205 35.2296 42.1691 35.3608C42.2177 35.4922 42.2192 35.6367 42.1733 35.769C42.008 36.3389 41.636 36.8251 41.1315 37.1305C40.5239 37.493 39.8098 37.6297 39.1129 37.5167C38.851 37.4869 38.7524 37.3646 38.7507 37.0984C38.7472 37.0437 38.7407 36.9894 38.7312 36.9356C38.6956 36.9528 38.6822 36.9548 38.6772 36.9624C38.3138 37.521 38.0471 38.1124 38.0937 38.8021C38.1215 39.0413 38.2149 39.2681 38.3633 39.4567C38.5118 39.6453 38.7094 39.7884 38.934 39.87C39.113 39.9231 39.2917 39.9772 39.4715 40.0275C39.6172 40.0681 39.7643 40.1037 39.9433 40.1498C39.9224 40.058 39.9104 40.0031 39.8972 39.9486C39.8482 39.7899 39.8105 39.6279 39.7844 39.4637C39.7474 39.0535 39.9183 38.8842 40.3208 38.942C40.5943 38.9874 40.8653 39.0472 41.1328 39.1212C42.0329 39.3488 42.9296 39.5942 43.8665 39.6113C44.3106 39.6361 44.7539 39.5528 45.1594 39.3685C45.2634 39.3174 45.3597 39.2504 45.4595 39.1906L45.4446 39.1331C45.1988 39.0937 44.9531 39.0543 44.7074 39.0149L44.6957 38.9489C45.3337 38.5035 46.0434 38.1729 46.793 37.9717C46.7636 37.9297 46.7243 37.8957 46.6788 37.8727C46.2993 37.702 45.924 37.5198 45.5371 37.3684C45.1863 37.2066 44.8046 37.1248 44.419 37.129C44.2547 37.1396 44.2337 37.111 44.297 36.9579C44.4658 36.5554 44.5654 36.1268 44.5915 35.6906C44.6316 35.3052 44.5711 34.9161 44.4157 34.5618C44.2604 34.2076 44.0156 33.9007 43.7061 33.6717C43.2116 33.33 42.6518 33.0966 42.0626 32.9865C41.3682 32.8192 40.6632 32.6889 39.9804 32.4835C38.9865 32.1802 38.1511 31.4942 37.6542 30.574C37.319 29.9788 37.0599 29.3429 36.8835 28.6817C36.8232 28.1916 36.7055 27.7106 36.5329 27.2486C36.5209 27.2163 36.5082 27.1843 36.4957 27.1523C36.9888 27.4509 37.5389 27.6409 38.1099 27.7097C38.6808 27.7785 39.2599 27.7246 39.8088 27.5517C40.5148 27.3527 41.193 27.0543 41.8894 26.8177C42.2153 26.7029 42.5497 26.6147 42.8896 26.5541C43.026 26.5283 43.1673 26.5515 43.2885 26.6199C43.4098 26.6882 43.5036 26.7974 43.5534 26.9282C43.7926 27.4708 43.8206 28.0844 43.6317 28.6468C43.4009 29.3201 42.9441 29.8907 42.3403 30.2599C42.3014 30.2958 42.255 30.3225 42.2046 30.3381C42.154 30.3537 42.1008 30.3576 42.0487 30.3497C41.9964 30.3418 41.9467 30.3223 41.903 30.2924C41.8592 30.2626 41.8227 30.2234 41.796 30.1775C41.7583 30.1381 41.7184 30.101 41.6767 30.0662C41.6607 30.1026 41.6516 30.1128 41.6527 30.1218C41.7337 30.7851 41.9094 31.4103 42.387 31.9056C42.5617 32.0699 42.7781 32.1817 43.0122 32.2285C43.2463 32.2755 43.4887 32.2554 43.7122 32.1709C43.8828 32.0945 44.0537 32.0191 44.223 31.9399C44.3601 31.8757 44.495 31.8068 44.6611 31.7251C44.5862 31.6687 44.542 31.6348 44.4969 31.6017C44.3578 31.5128 44.2252 31.4139 44.1002 31.3057C43.8091 31.0171 43.8308 30.7764 44.1747 30.5575C44.4124 30.4135 44.6574 30.2821 44.9086 30.1637C45.7408 29.7493 46.5818 29.3508 47.3071 28.7518C47.6616 28.4806 47.9462 28.1275 48.1374 27.7221C48.1838 27.6153 48.2143 27.5012 48.2521 27.3905L48.2037 27.3564L47.566 27.7478L47.5148 27.7051C47.7157 26.9487 48.0448 26.2332 48.4875 25.59C48.4381 25.5773 48.3864 25.577 48.3369 25.5893C47.9382 25.707 47.5353 25.8132 47.1431 25.9505C46.772 26.0563 46.4286 26.2432 46.1372 26.4983C46.0188 26.6136 45.9844 26.6055 45.9345 26.4476C45.8054 26.0303 45.6066 25.6386 45.3468 25.289C45.1305 24.9689 44.8347 24.7118 44.4892 24.5432C44.1438 24.3745 43.7604 24.3004 43.3776 24.328C42.7816 24.3904 42.2052 24.5782 41.6854 24.8791C41.0488 25.2051 40.4277 25.5663 39.7754 25.8557C38.8233 26.2735 37.7466 26.2964 36.7781 25.9194C36.2303 25.7193 35.7068 25.4573 35.2175 25.1383C34.7669 24.6655 34.2442 24.2683 33.6695 23.9618C34.2403 23.8741 34.7862 23.6648 35.2709 23.3482C35.7557 23.0314 36.1683 22.6144 36.4815 22.1246C36.8976 21.5153 37.2291 20.8478 37.614 20.2159C37.7915 19.9172 37.9925 19.6332 38.2151 19.367C38.3035 19.2588 38.4267 19.1854 38.5633 19.1596C38.6998 19.1337 38.841 19.1569 38.9623 19.2252C39.4902 19.4873 39.9009 19.9405 40.1126 20.4946C40.3623 21.161 40.3734 21.8946 40.1438 22.5684C40.1367 22.6212 40.118 22.6717 40.0891 22.7163C40.0602 22.7608 40.0218 22.7983 39.9767 22.8259C39.9316 22.8536 39.881 22.8707 39.8285 22.8762C39.776 22.8815 39.7231 22.875 39.6734 22.8571C39.6195 22.8512 39.5654 22.8483 39.5112 22.8486C39.5219 22.8869 39.5215 22.9006 39.5281 22.9068C40.011 23.364 40.5425 23.7305 41.2236 23.8023C41.4619 23.8157 41.6991 23.7616 41.9086 23.6462C42.1181 23.531 42.2917 23.3589 42.4097 23.1496C42.4922 22.9806 42.5757 22.8121 42.6555 22.6419C42.7202 22.5039 42.78 22.3638 42.8557 22.1937C42.7626 22.1988 42.7069 22.2013 42.6515 22.2049C42.4882 22.2267 42.3236 22.2364 42.159 22.2342C41.7522 22.2007 41.6163 22.0017 41.7416 21.6113C41.8328 21.347 41.9376 21.0877 42.0556 20.8344C42.4319 19.9782 42.825 19.1283 43.0022 18.1995C43.1024 17.7621 43.0972 17.3068 42.9868 16.872C42.9547 16.7598 42.9058 16.6526 42.8646 16.5431L42.8059 16.5481C42.7253 16.7857 42.6448 17.0233 42.5642 17.2609L42.4979 17.2613C42.1724 16.5504 41.9713 15.7881 41.9034 15.008C41.8573 15.0301 41.8174 15.0632 41.7872 15.1047C41.5555 15.4529 41.3135 15.7949 41.0994 16.1538C40.8815 16.4749 40.7363 16.8406 40.6743 17.2248C40.6565 17.39 40.6249 17.406 40.4863 17.3169C40.1225 17.0799 39.7213 16.9074 39.2999 16.8069C38.9308 16.7009 38.5406 16.6945 38.1683 16.7883C37.7959 16.8821 37.4545 17.0729 37.178 17.3416C36.7598 17.7748 36.436 18.2916 36.2277 18.8588C35.9455 19.5206 35.6976 20.1995 35.3801 20.8436C34.9138 21.7799 34.1014 22.4935 33.1182 22.83C32.5288 23.0447 31.9161 23.1875 31.2931 23.2552C30.7151 23.2072 30.1331 23.2429 29.5651 23.3615C29.9412 22.9231 30.2212 22.4095 30.3869 21.8543C30.5526 21.2991 30.6003 20.7148 30.5267 20.1397C30.455 19.4031 30.2815 18.6773 30.1714 17.9438C30.1159 17.6 30.0879 17.2522 30.0876 16.9038C30.0861 16.7635 30.1332 16.6272 30.221 16.5185C30.3088 16.4098 30.4314 16.3355 30.5678 16.3086C31.1385 16.1649 31.742 16.2434 32.258 16.5287C32.8748 16.8749 33.3523 17.428 33.6077 18.0923C33.6361 18.1373 33.6541 18.188 33.6605 18.2409C33.667 18.2937 33.6615 18.3474 33.6448 18.3979C33.6281 18.4483 33.6004 18.4945 33.5637 18.5328C33.5271 18.5711 33.4824 18.6006 33.433 18.6193C33.3881 18.6498 33.3449 18.683 33.3037 18.7186C33.3364 18.7407 33.3449 18.7515 33.3539 18.752C34.015 18.7864 34.6554 18.7202 35.2214 18.3312C35.4119 18.186 35.5586 17.9902 35.6449 17.7656C35.7313 17.541 35.7538 17.2966 35.71 17.0597C35.665 16.8769 35.621 16.6939 35.5731 16.5118C35.5344 16.3644 35.4904 16.2183 35.4396 16.039C35.3716 16.1036 35.3308 16.1418 35.2907 16.1808C35.1799 16.3037 35.0605 16.4184 34.9331 16.524C34.6012 16.7634 34.3701 16.7 34.2162 16.3201C34.1169 16.0589 34.0312 15.7925 33.9592 15.5222C33.6992 14.623 33.4562 13.7178 32.9976 12.8928C32.7944 12.4934 32.4993 12.1492 32.137 11.8889C32.0408 11.8241 31.9348 11.7741 31.8333 11.7173L31.7917 11.7595C31.8822 11.9934 31.9725 12.2274 32.063 12.4613L32.0126 12.5049C31.3094 12.174 30.6683 11.7228 30.1176 11.1711C30.0966 11.218 30.0874 11.2694 30.0908 11.3208C30.1365 11.7376 30.1703 12.1565 30.2362 12.5702C30.275 12.9574 30.398 13.3314 30.5962 13.6652C30.6883 13.8029 30.6744 13.8358 30.5116 13.858C30.0823 13.914 29.6655 14.0438 29.2794 14.2414C28.9296 14.4011 28.6275 14.6504 28.4031 14.9647C28.1786 15.279 28.0399 15.6472 28.0005 16.0325C27.9581 16.6359 28.0412 17.2416 28.2448 17.8105C28.4524 18.5 28.6972 19.18 28.8664 19.8789C29.109 20.8978 28.9446 21.9722 28.4088 22.8699C28.1202 23.3769 27.7761 23.8494 27.3829 24.2787C26.8269 24.6517 26.3359 25.1148 25.9295 25.6495C25.9458 25.0651 25.8386 24.4839 25.6151 23.9446C25.3915 23.4053 25.0567 22.9202 24.633 22.5218C24.1122 22.0009 23.5194 21.554 22.971 21.0603C22.7109 20.8314 22.4695 20.5817 22.2489 20.3136C22.1591 20.2067 22.1092 20.0714 22.108 19.9312C22.1068 19.7909 22.1543 19.6547 22.2422 19.5461C22.5907 19.0677 23.105 18.7394 23.6824 18.6265C24.3763 18.4955 25.0936 18.6137 25.7102 18.9604C25.7604 18.9767 25.8064 19.0042 25.8447 19.0407C25.8831 19.0773 25.9129 19.122 25.9319 19.1717C25.951 19.2214 25.9588 19.2748 25.9548 19.3278C25.9508 19.3809 25.9351 19.4325 25.9089 19.4787C25.8936 19.5311 25.8814 19.5844 25.8721 19.6383C25.9114 19.6344 25.9247 19.6372 25.9318 19.6317C26.4625 19.2323 26.9136 18.7687 27.1035 18.1044C27.1584 17.87 27.1475 17.6247 27.0719 17.3962C26.9962 17.1677 26.8591 16.965 26.6757 16.8109C26.5254 16.6992 26.3758 16.5866 26.2238 16.4773C26.1008 16.3888 25.9746 16.3047 25.822 16.1994C25.8107 16.2929 25.8033 16.3486 25.7971 16.4044C25.7895 16.5705 25.7701 16.7358 25.7389 16.899C25.6347 17.2972 25.4167 17.3973 25.0581 17.2042C24.8164 17.0669 24.582 16.9172 24.3557 16.7554C23.587 16.2308 22.8275 15.6905 21.9529 15.3511C21.544 15.1744 21.0991 15.0996 20.6557 15.1327C20.5407 15.1449 20.4275 15.1747 20.3134 15.1963L20.308 15.2555C20.5256 15.3774 20.7431 15.4993 20.9606 15.621L20.9493 15.6871C20.1989 15.8855 19.4201 15.9512 18.6473 15.8813C18.6608 15.9309 18.6862 15.9765 18.7212 16.0139C19.0201 16.3053 19.3109 16.606 19.6232 16.882C19.898 17.1551 20.229 17.3637 20.5927 17.4929C20.7507 17.5397 20.7608 17.5738 20.6495 17.6958C20.3544 18.0156 20.1156 18.384 19.9434 18.785C19.7751 19.1332 19.7002 19.5199 19.7261 19.9064C19.7521 20.2929 19.8781 20.6659 20.0915 20.9878C20.4403 21.4797 20.8873 21.8923 21.4037 22.1992C21.9995 22.596 22.6178 22.9619 23.1899 23.3907C24.021 24.0189 24.5738 24.9519 24.7289 25.9881C24.8422 26.6627 24.8703 27.3492 24.8122 28.031C24.6857 28.5757 24.6337 29.1354 24.6578 29.6944C24.2983 29.2358 23.8463 28.86 23.3317 28.5916C22.8172 28.3232 22.2519 28.1686 21.6735 28.1381C20.9429 28.0767 20.2043 28.1185 19.4699 28.096C19.1248 28.0892 18.7808 28.0544 18.4413 27.9921C18.3044 27.9684 18.18 27.897 18.0899 27.7903C17.9997 27.6837 17.9494 27.5485 17.9478 27.4082C17.9103 26.8155 18.0954 26.2304 18.4662 25.7694C18.9145 25.2191 19.5394 24.8444 20.2326 24.7103C20.2815 24.6902 20.3341 24.6814 20.3868 24.6846C20.4395 24.6876 20.4908 24.7026 20.537 24.7283C20.5831 24.754 20.6231 24.7899 20.6539 24.8331C20.6846 24.8764 20.7054 24.926 20.7146 24.9786C20.7364 25.0286 20.7609 25.0775 20.7881 25.1248C20.8157 25.0963 20.8276 25.0897 20.8297 25.081C20.9822 24.4307 21.0329 23.7828 20.7556 23.1506C20.6485 22.9354 20.484 22.7546 20.2806 22.6285C20.0773 22.5023 19.8431 22.4361 19.6045 22.4368C19.4183 22.4487 19.2319 22.4594 19.046 22.4742C18.8953 22.4862 18.745 22.5035 18.5612 22.5219C18.612 22.6009 18.6418 22.6483 18.6726 22.6952C18.7724 22.8273 18.8627 22.9666 18.9427 23.1119C19.1163 23.4847 19.0129 23.7028 18.6152 23.7873C18.3427 23.8388 18.0677 23.8761 17.7914 23.8989C16.8684 23.9954 15.9425 24.0739 15.0562 24.3809C14.6306 24.5108 14.2419 24.742 13.9232 25.055C13.8428 25.1388 13.7749 25.2351 13.7013 25.3257L13.7349 25.3746C13.9792 25.3269 14.2235 25.2792 14.4677 25.2315L14.501 25.2894C14.0522 25.9281 13.4971 26.4836 12.8605 26.9311ZM22.6406 16.9536C22.6846 16.9072 22.7413 16.8749 22.8035 16.861C22.8658 16.847 22.9306 16.8519 22.99 16.8752C23.1032 16.9035 23.2127 16.945 23.3164 16.9987C23.3458 17.0119 23.3872 17.0552 23.3827 17.0755C23.3701 17.114 23.3435 17.1461 23.3081 17.1652L22.6406 16.9536ZM32.5137 14.5696C32.6637 14.5368 32.7541 14.6403 32.8322 14.7344C32.9013 14.8291 32.9594 14.9317 33.0053 15.0399C33.0196 15.0689 33.0241 15.1289 33.0079 15.1417C32.9739 15.1631 32.933 15.1707 32.8937 15.1626L32.5137 14.5696ZM41.5604 19.1649C41.696 19.2377 41.6988 19.3756 41.6985 19.4983C41.6907 19.6158 41.6695 19.7319 41.6353 19.8444C41.6278 19.876 41.5928 19.9248 41.5722 19.9239C41.5325 19.9181 41.4965 19.8973 41.4715 19.8655L41.5604 19.1649ZM45.0747 29.042L45.5873 28.5614C45.6453 28.7049 45.5599 28.8127 45.4818 28.9067C45.4013 28.9919 45.3114 29.0674 45.2138 29.1317C45.188 29.1511 45.1302 29.1659 45.115 29.152C45.088 29.1219 45.0736 29.0826 45.0747 29.042ZM41.9784 38.3744L42.6773 38.3428C42.6295 38.49 42.4953 38.5165 42.3755 38.5371C42.2596 38.5496 42.1427 38.5483 42.0269 38.5336C41.9948 38.5314 41.9413 38.5051 41.9387 38.4844C41.9374 38.4439 41.9516 38.4046 41.9784 38.3744ZM34.2106 43.9872C34.1536 44.0159 34.0895 44.0269 34.0263 44.0189C33.9631 44.0109 33.9037 43.9842 33.8554 43.9421C33.7585 43.8768 33.6693 43.8004 33.5897 43.7145C33.5663 43.6922 33.5418 43.6373 33.5528 43.6196C33.5774 43.5877 33.6133 43.5666 33.6531 43.5606L34.2106 43.9872ZM24.1455 42.8003C23.9935 42.7789 23.9439 42.6504 23.9024 42.5351C23.8697 42.4221 23.8501 42.3056 23.8439 42.1881C23.8402 42.1559 23.8565 42.098 23.8761 42.0917C23.9154 42.0832 23.9563 42.0904 23.9905 42.1115L24.1455 42.8003ZM17.523 34.743L17.2012 35.37C17.1635 35.3182 17.1418 35.2563 17.1389 35.192C17.1361 35.1278 17.1521 35.0641 17.185 35.009C17.2323 34.9014 17.2918 34.7997 17.3622 34.7059C17.38 34.6789 17.4294 34.6453 17.4485 34.6533C17.4838 34.6724 17.5105 34.7045 17.5231 34.743H17.523ZM35.3673 31.5237C34.9575 32.4375 34.2884 33.208 33.4447 33.7378C32.6009 34.2677 31.6206 34.5331 30.6274 34.5005C29.6344 34.4679 28.6732 34.1387 27.8654 33.5546C27.0576 32.9705 26.4395 32.1577 26.0893 31.219C25.7391 30.2803 25.6725 29.2578 25.8979 28.281C26.1234 27.304 26.6307 26.4165 27.3558 25.7307C28.0808 25.0448 28.9912 24.5915 29.9715 24.4279C30.9518 24.2643 31.9582 24.3978 32.8633 24.8115C34.0761 25.3676 35.0208 26.3867 35.4902 27.6449C35.9597 28.9033 35.9155 30.2982 35.3673 31.5237ZM16.8209 24.8763C16.9257 24.8247 17.036 24.7854 17.1498 24.7595C17.1807 24.7503 17.2399 24.7567 17.2494 24.7752C17.2642 24.8128 17.2642 24.8548 17.2493 24.8923L16.6031 25.1631C16.5982 25.0081 16.7154 24.937 16.8209 24.8763Z" fill="#4C4C4C"/>
<path d="M56.4416 35.5916L56.5308 35.5325C56.8475 35.778 57.1644 36.0235 57.4813 36.269L57.5643 36.223C57.523 36.0396 57.4941 35.8523 57.4382 35.6735C57.2031 34.993 56.8095 34.3795 56.2906 33.8846C55.2361 32.8013 53.9623 32.0177 52.7053 31.2104C52.3248 30.9776 51.9564 30.7248 51.6018 30.4533C51.0905 30.0437 51.0973 29.6556 51.6119 29.2459C51.8301 29.0951 52.0588 28.9605 52.2963 28.843C52.3738 28.7981 52.4503 28.7515 52.5794 28.6748C52.3285 28.5153 52.125 28.3816 51.9172 28.2551C51.6606 28.0991 51.4007 27.9487 51.1417 27.7969C50.7995 27.6228 50.416 27.5484 50.0343 27.5822C49.6526 27.6161 49.2877 27.7567 48.9807 27.9882C48.1327 28.6954 47.7446 29.6625 47.5009 30.7071C47.4976 30.7213 47.5102 30.7393 47.5296 30.8001C47.6023 30.7519 47.6722 30.6996 47.7391 30.6433C48.0484 30.3513 48.2986 30.3321 48.6222 30.6072C49.5016 31.3548 50.1764 32.2444 50.4056 33.4083C50.6101 34.3392 50.4596 35.3137 49.9842 36.1378C49.8821 36.3381 49.7137 36.4958 49.5084 36.5837C49.3029 36.6717 49.0735 36.6841 48.8601 36.619C48.328 36.4625 47.8094 36.2633 47.309 36.023C46.2381 35.5233 45.2072 34.9282 44.1143 34.4869C42.239 33.7298 40.4339 33.7556 38.7212 34.5604C39.1533 33.7749 39.4769 32.9334 39.6827 32.0592C40.0844 31.0378 40.613 30.0721 41.2557 29.1851C42.2829 27.7976 43.6198 26.8721 45.3137 26.5693C46.4405 26.3678 47.5889 26.2903 48.7268 26.1518C49.683 26.0355 50.626 25.8662 51.4731 25.3627C52.6268 24.6771 53.177 23.6303 53.2529 22.3059C53.2908 21.6052 53.21 20.903 53.0138 20.2298C52.9406 19.974 52.9794 19.9321 53.2396 19.9794C53.8539 20.0573 54.4777 19.9975 55.0666 19.8043C55.7115 19.6342 56.3432 19.413 56.9796 19.2108C57.0565 19.1826 57.1254 19.1356 57.1799 19.074C56.0206 18.6146 54.9489 17.9559 54.0122 17.1273L54.0429 17.0243C54.442 17.0069 54.8411 16.9895 55.2402 16.9721L55.2746 16.883C55.1262 16.7692 54.9849 16.6445 54.8284 16.5438C54.2149 16.1749 53.5227 15.9601 52.81 15.9175C51.3124 15.7715 49.8373 15.9973 48.36 16.1939C47.92 16.2624 47.4768 16.3077 47.0322 16.3296C46.3796 16.3473 46.1378 16.0456 46.2715 15.398C46.3428 15.141 46.4325 14.8895 46.5397 14.6455C46.5705 14.5608 46.5996 14.4756 46.6497 14.333C46.3558 14.3736 46.1147 14.403 45.875 14.4409C45.579 14.4878 45.2841 14.5412 44.9888 14.5928C44.6158 14.6813 44.2746 14.8731 44.0035 15.1465C43.7323 15.42 43.5421 15.7644 43.4541 16.1409C43.2542 17.2326 43.5721 18.2252 44.0502 19.1835C44.0566 19.1965 44.0777 19.2022 44.1313 19.2363C44.1563 19.1521 44.1767 19.0666 44.1921 18.9803C44.2433 18.5558 44.423 18.379 44.8461 18.3798C45.9959 18.3822 47.0794 18.6261 47.9958 19.3692C48.7449 19.9497 49.2499 20.7939 49.4099 21.7336C49.459 21.9533 49.4304 22.1834 49.3289 22.3839C49.2273 22.5844 49.0594 22.7427 48.8542 22.8312C48.3469 23.0564 47.8225 23.2401 47.286 23.3806C46.1472 23.6922 44.978 23.9049 43.8595 24.2756C41.9404 24.9117 40.5732 26.1019 39.7724 27.8289C39.5692 26.7666 39.1934 25.7456 38.6605 24.8071C38.4009 23.9056 38.2429 22.9774 38.1893 22.0402C38.1028 20.3104 38.5471 18.737 39.6599 17.4124C40.4002 16.5312 41.2354 15.7317 42.0242 14.8919C42.6869 14.1862 43.3059 13.4483 43.6399 12.515C44.0946 11.244 43.8564 10.0839 43.0774 9.01581C42.6635 8.45204 42.1573 7.96381 41.5806 7.57216C41.3625 7.42238 41.3659 7.36517 41.5961 7.23397C42.1184 6.89808 42.561 6.45011 42.8922 5.92195C43.2812 5.37555 43.6278 4.79826 43.99 4.2326C44.0314 4.16132 44.0547 4.08083 44.0578 3.99828C42.8745 4.39168 41.6328 4.57537 40.3877 4.54124L40.3461 4.44217C40.6425 4.17161 40.9388 3.90104 41.2351 3.63049L41.2053 3.53978C41.0191 3.54784 40.8314 3.54297 40.6471 3.56627C39.9416 3.67762 39.2728 3.95834 38.6971 4.38483C37.4515 5.23745 36.4584 6.36168 35.4453 7.4649C35.1497 7.80106 34.837 8.1215 34.5086 8.42491C34.0173 8.85901 33.6403 8.78264 33.3339 8.19815C33.2263 7.95438 33.1363 7.70307 33.0646 7.44617C33.0348 7.36118 33.0032 7.27681 32.9516 7.13478C32.751 7.3554 32.584 7.53337 32.4233 7.71707C32.2251 7.94385 32.0317 8.17495 31.8371 8.40493C31.6058 8.71342 31.4642 9.08088 31.4284 9.46603C31.3926 9.85117 31.4637 10.2387 31.6342 10.5852C32.1705 11.5541 33.043 12.1132 34.017 12.5426C34.0302 12.5485 34.05 12.5392 34.1128 12.5309C34.0789 12.4501 34.0404 12.3712 33.9978 12.2948C33.7689 11.9351 33.7953 11.6833 34.1217 11.4112C35.0085 10.6722 35.9971 10.1618 37.1726 10.1432C38.1164 10.1072 39.0391 10.4316 39.7564 11.0516C39.9331 11.189 40.0566 11.3845 40.1051 11.6043C40.1538 11.824 40.1247 12.054 40.0227 12.2543C39.7744 12.7545 39.4867 13.2338 39.1625 13.6876C38.4826 14.6612 37.7168 15.5782 37.0899 16.5842C36.0228 18.2967 35.7193 20.0789 36.1788 21.9086C35.4473 21.3268 34.6371 20.8538 33.7727 20.5039C32.9262 19.9554 32.1479 19.3065 31.4543 18.571C30.2823 17.3065 29.6156 15.8156 29.6189 14.079C29.6211 12.9239 29.748 11.7691 29.8137 10.614C29.8688 9.64339 29.8698 8.67656 29.5283 7.74634C29.0631 6.47949 28.1394 5.74882 26.8613 5.4409C26.1846 5.28008 25.4856 5.23712 24.7946 5.31388C24.5322 5.34157 24.4983 5.29564 24.5903 5.04547C24.7745 4.44871 24.8261 3.81831 24.7416 3.19918C24.6894 2.52848 24.585 1.86188 24.5001 1.19392C24.4861 1.11254 24.4525 1.03591 24.4021 0.970827C23.7496 2.0422 22.9184 2.99153 21.9452 3.77679L21.8502 3.72818C21.9036 3.32852 21.957 2.92886 22.0104 2.52921L21.9296 2.47936C21.7924 2.60682 21.6459 2.72545 21.5201 2.86329C21.0522 3.40802 20.7208 4.05814 20.5535 4.75897C20.1471 6.22157 20.1072 7.72705 20.0385 9.22959C20.0276 9.67884 19.9936 10.1272 19.9367 10.5729C19.8388 11.2245 19.502 11.4118 18.8941 11.1652C18.6561 11.0492 18.4266 10.916 18.2076 10.7665C18.1305 10.721 18.0524 10.6772 17.9222 10.6023C17.91 10.9015 17.8962 11.1462 17.891 11.3912C17.8845 11.6935 17.8845 11.996 17.8828 12.2984C17.9033 12.6847 18.0302 13.0575 18.249 13.3749C18.4679 13.6924 18.7702 13.9418 19.1218 14.0954C20.1511 14.4858 21.1751 14.3442 22.1939 14.0374C22.2078 14.0333 22.2169 14.0134 22.2596 13.9662C22.182 13.9264 22.1023 13.8912 22.0207 13.8607C21.6159 13.7353 21.4751 13.5258 21.5505 13.1053C21.7555 11.9632 22.1845 10.9293 23.0707 10.1492C23.7688 9.5067 24.6811 9.15324 25.6257 9.15924C25.8485 9.14899 26.0678 9.21789 26.2454 9.35399C26.4231 9.49008 26.5479 9.68475 26.5981 9.90413C26.7282 10.4479 26.8149 11.0013 26.8572 11.559C26.9603 12.7455 26.9616 13.9446 27.1259 15.1212C27.407 17.1343 28.3222 18.6987 29.8572 19.7974C28.8137 19.8212 27.7806 20.0131 26.797 20.3657C25.8673 20.4693 24.9291 20.4663 24.0003 20.357C22.2978 20.1436 20.8398 19.4297 19.7409 18.0941C19.0098 17.2057 18.3749 16.237 17.6925 15.3074C17.1192 14.5265 16.5068 13.7834 15.6544 13.2899C14.4933 12.6177 13.3202 12.6538 12.1428 13.2436C11.5209 13.5575 10.9566 13.9763 10.4743 14.482C10.2904 14.6728 10.2351 14.6595 10.1471 14.4079C9.91014 13.8306 9.54997 13.3131 9.09224 12.8924C8.62673 12.4111 8.12375 11.9667 7.63479 11.5086C7.57243 11.4551 7.49794 11.4181 7.41796 11.4007C7.59622 12.6451 7.55973 13.9114 7.31014 15.1434L7.20626 15.1676L6.5688 14.1433L6.47512 14.1572C6.45066 14.3437 6.41329 14.5296 6.40401 14.7168C6.39009 15.4375 6.54779 16.151 6.86385 16.7972C7.47928 18.183 8.40359 19.365 9.30391 20.5631C9.58053 20.9151 9.83884 21.2813 10.0778 21.6605C10.416 22.224 10.276 22.5855 9.65249 22.7891C9.39597 22.8539 9.13515 22.8999 8.87208 22.9267C8.78398 22.9417 8.69619 22.9584 8.54867 22.9851C8.72905 23.2228 8.87368 23.4197 9.02499 23.6111C9.21179 23.8475 9.40366 24.0796 9.59421 24.313C9.855 24.5963 10.1889 24.8006 10.5584 24.9029C10.928 25.0052 11.3185 25.0015 11.6861 24.8921C12.7245 24.5265 13.4214 23.7558 14.0096 22.8617C14.0176 22.8495 14.012 22.8284 14.0149 22.7644C13.9301 22.7841 13.8465 22.8087 13.7645 22.838C13.3738 23.0033 13.1327 22.9335 12.9241 22.5619C12.3572 21.5523 12.0309 20.4811 12.2169 19.3093C12.3457 18.3646 12.8224 17.5036 13.552 16.8975C13.7167 16.7456 13.929 16.6568 14.1518 16.6465C14.3746 16.6362 14.5939 16.705 14.7716 16.841C15.2165 17.1744 15.6342 17.5433 16.0205 17.9441C16.8523 18.7886 17.6139 19.7086 18.4864 20.506C19.9733 21.8645 21.6614 22.4746 23.5286 22.3326C23.4878 22.3695 23.447 22.4063 23.4067 22.4439C22.83 22.9825 22.3188 23.5883 21.8836 24.2485C21.1598 25.0703 20.3355 25.7961 19.4303 26.4082C17.9952 27.3577 16.4256 27.7658 14.7314 27.4656C13.6044 27.266 12.4992 26.9423 11.383 26.6795C10.4453 26.4588 9.50184 26.2925 8.53536 26.4731C7.2191 26.7192 6.34743 27.513 5.82753 28.7315C5.55443 29.377 5.39254 30.0648 5.34883 30.7652C5.33084 31.0308 5.28018 31.0567 5.05181 30.9226C4.501 30.6372 3.89463 30.478 3.27585 30.4563C2.61232 30.3936 1.94383 30.3833 1.27736 30.3537C1.19553 30.3537 1.11496 30.3741 1.0428 30.413C1.97642 31.2451 2.76027 32.2341 3.35963 33.3363L3.29587 33.4224C2.91498 33.3011 2.53409 33.1796 2.1532 33.0581L2.0907 33.13C2.19156 33.2882 2.28217 33.4542 2.39511 33.6029C2.84644 34.1613 3.42403 34.6022 4.07932 34.8883C5.437 35.5426 6.89946 35.8397 8.35409 36.1648C8.79069 36.2525 9.22248 36.3629 9.6477 36.4958C10.2668 36.7045 10.3918 37.0714 10.0468 37.6338C9.8927 37.8508 9.72326 38.0562 9.53981 38.2486C9.4822 38.3175 9.42597 38.3876 9.33058 38.5043C9.62048 38.5676 9.85697 38.6231 10.0951 38.6702C10.389 38.7284 10.6843 38.7801 10.9791 38.8335C11.3596 38.8791 11.7453 38.8167 12.0926 38.6533C12.44 38.4898 12.7354 38.2319 12.9457 37.9084C13.5033 36.9514 13.5409 35.9088 13.4164 34.8431C13.4147 34.8287 13.3969 34.8162 13.358 34.7655C13.306 34.8359 13.2579 34.9093 13.2141 34.9851C13.0222 35.3663 12.7935 35.4706 12.3963 35.3236C11.3167 34.9244 10.3813 34.3211 9.77206 33.3065C9.26484 32.5022 9.07645 31.5345 9.24445 30.596C9.27269 30.3727 9.37759 30.1664 9.54091 30.0129C9.70423 29.8595 9.91562 29.7687 10.1383 29.7564C10.6913 29.7199 11.2463 29.7282 11.7979 29.7814C12.9735 29.8817 14.1441 30.0855 15.3207 30.1232C17.3408 30.1881 19.0296 29.5406 20.3676 28.192C20.2063 29.2338 20.2079 30.2946 20.3721 31.3359C20.3144 32.296 20.1477 33.2462 19.8752 34.1679C19.3721 35.8239 18.423 37.1503 16.9294 38.0125C15.936 38.5861 14.8808 39.0501 13.8557 39.5682C12.9944 40.0034 12.1633 40.4841 11.534 41.2465C10.6771 42.2849 10.5091 43.4577 10.8805 44.73C11.079 45.4026 11.3899 46.0359 11.7996 46.6026C11.954 46.8185 11.9315 46.8711 11.6707 46.9152C11.0664 47.0512 10.4991 47.32 10.0093 47.7025C9.45904 48.0823 8.93826 48.5057 8.4067 48.9129C8.34373 48.9655 8.29465 49.0333 8.26381 49.1097C9.50889 49.1473 10.7381 49.4021 11.897 49.8629C11.8988 49.8986 11.9006 49.9345 11.9024 49.9703C11.5325 50.1227 11.1627 50.275 10.7927 50.4274L10.7901 50.5229C10.9677 50.5795 11.1426 50.6487 11.3237 50.6901C12.0244 50.8284 12.7479 50.7948 13.4332 50.592C14.892 50.2192 16.2052 49.5042 17.5302 48.8158C17.9216 48.6015 18.3236 48.4079 18.7349 48.2356C19.3434 47.9967 19.6718 48.1983 19.7625 48.8533C19.7812 49.1195 19.7809 49.3868 19.7615 49.653C19.7608 49.7431 19.762 49.8333 19.7625 49.9847C20.0255 49.8463 20.2427 49.7365 20.4558 49.619C20.7187 49.4741 20.9786 49.3235 21.2392 49.1742C21.5608 48.9638 21.818 48.6671 21.9819 48.3174C22.1457 47.9675 22.2096 47.5787 22.1666 47.1943C21.9898 46.0987 21.3586 45.2727 20.5882 44.5336C20.5777 44.5236 20.556 44.5254 20.4941 44.5116C20.4988 44.5993 20.5082 44.6867 20.5225 44.7733C20.6162 45.1902 20.5062 45.4179 20.1076 45.5612C19.0242 45.9507 17.9227 46.0903 16.8115 45.7031C15.9122 45.4119 15.1545 44.7894 14.6897 43.9594C14.5701 43.7694 14.5202 43.5431 14.5487 43.3197C14.5772 43.0964 14.6824 42.8902 14.8458 42.737C15.2482 42.3522 15.6806 42.0006 16.1386 41.6856C17.1066 41.0043 18.1361 40.4059 19.0653 39.6759C20.6482 38.4321 21.5358 36.8594 21.7211 34.9787C22.239 35.8184 22.8765 36.5764 23.6134 37.2283C24.1954 38.014 24.6847 38.8656 25.0714 39.7658C25.7414 41.3599 25.8598 42.9916 25.2654 44.6214C24.8701 45.7055 24.3578 46.746 23.9028 47.8083C23.5206 48.7006 23.1905 49.6084 23.1944 50.6005C23.1999 51.9517 23.8186 52.9584 24.9139 53.6912C25.4944 54.0769 26.136 54.3598 26.8111 54.5275C27.0668 54.5925 27.0831 54.6473 26.9115 54.8505C26.5353 55.347 26.2722 55.9211 26.1408 56.5319C25.9615 57.18 25.8325 57.8423 25.6848 58.4991C25.6703 58.5804 25.6758 58.664 25.7009 58.7426C26.6784 57.9627 27.7821 57.3596 28.9632 56.9596L29.0359 57.0383L28.4773 58.1088L28.5362 58.1836C28.7083 58.1115 28.8863 58.0509 29.0514 57.9651C29.6762 57.6158 30.2088 57.1203 30.6043 56.5201C31.484 55.2874 32.0339 53.8873 32.61 52.4999C32.7731 52.0818 32.9577 51.6724 33.163 51.2735C33.4767 50.6955 33.8567 50.6365 34.3435 51.0789C34.5276 51.2706 34.6977 51.4753 34.8524 51.6917C34.9094 51.7612 34.9677 51.8294 35.0644 51.9448C35.1779 51.6681 35.2741 51.4431 35.3624 51.2148C35.4715 50.9332 35.5744 50.6491 35.679 50.3656C35.7912 49.9957 35.7991 49.6016 35.7016 49.2275C35.6041 48.8533 35.4053 48.5142 35.1273 48.2479C34.2938 47.5242 33.284 47.302 32.2231 47.2365C32.2087 47.2357 32.1932 47.2512 32.1371 47.2807C32.1965 47.3449 32.2594 47.4056 32.3255 47.4626C32.6629 47.7209 32.7238 47.9665 32.5099 48.3352C31.9285 49.3367 31.1737 50.159 30.0761 50.5842C29.2017 50.9454 28.2248 50.9609 27.34 50.6275C27.1273 50.5598 26.9447 50.4191 26.8242 50.2296C26.7037 50.0401 26.653 49.814 26.6805 49.5905C26.7435 49.0348 26.8504 48.4848 27.0005 47.9463C27.3077 46.7962 27.7147 45.6696 27.9611 44.5075C28.381 42.5264 28.0579 40.7454 26.9998 39.185C27.813 39.455 28.6576 39.617 29.5122 39.6673C30.5749 39.8895 31.6054 40.2469 32.579 40.7308C34.1102 41.5115 35.244 42.6802 35.8321 44.3119C36.2233 45.3972 36.4973 46.5255 36.829 47.633C37.1076 48.5634 37.4357 49.4716 38.0732 50.2266C38.9415 51.2548 40.0578 51.6203 41.3631 51.466C42.0533 51.3822 42.7244 51.1801 43.3474 50.8682C43.5843 50.7512 43.6318 50.7825 43.6307 51.0494C43.6607 51.6737 43.8269 52.2834 44.1172 52.8354C44.3944 53.4471 44.7194 54.0369 45.0266 54.6346C45.0674 54.7061 45.1252 54.7664 45.1946 54.81C45.4427 53.5777 45.9002 52.3979 46.5468 51.323L46.6526 51.3356C46.7385 51.7293 46.8244 52.1232 46.9104 52.5169L47.0033 52.5357C47.0886 52.3685 47.1859 52.2063 47.2572 52.0332C47.511 51.3594 47.6011 50.6339 47.5195 49.9179C47.4033 48.4034 46.9282 46.976 46.4812 45.5414C46.3384 45.1158 46.2176 44.683 46.1194 44.2447C45.9894 43.5989 46.242 43.3063 46.8969 43.3269C47.16 43.3532 47.4209 43.3987 47.6775 43.4631C47.7654 43.479 47.8536 43.4931 48.0013 43.5183C47.911 43.2331 47.8406 42.9985 47.7622 42.7666C47.6653 42.4805 47.5624 42.1966 47.4609 41.912C47.3102 41.5564 47.0641 41.2504 46.7504 41.0283C46.4368 40.8061 46.068 40.6767 45.6854 40.6546C44.5858 40.6451 43.6723 41.1333 42.8199 41.7748C42.8083 41.7835 42.8065 41.8054 42.7824 41.8646C42.8688 41.8749 42.9557 41.8803 43.0427 41.8806C43.4656 41.858 43.6693 42.0059 43.7415 42.4268C43.9377 43.5704 43.887 44.69 43.3202 45.7299C42.8833 46.5754 42.1468 47.2238 41.2576 47.5459C41.0519 47.6328 40.8224 47.6443 40.6092 47.5781C40.396 47.512 40.2125 47.3724 40.0907 47.1838C39.7834 46.7184 39.5135 46.2289 39.2839 45.7199C38.783 44.6416 38.3736 43.5161 37.8188 42.4683C36.8671 40.6712 35.4703 39.5185 33.6481 39.0215C34.4509 38.7081 35.2092 38.2891 35.9035 37.7754C36.8782 37.2385 37.9172 36.8305 38.9951 36.5617C40.665 36.1642 42.2782 36.3217 43.7686 37.1882C44.7601 37.7644 45.6892 38.4499 46.6492 39.0818C47.4557 39.6127 48.286 40.0943 49.2554 40.2578C50.5755 40.4805 51.6634 40.0349 52.5643 39.0688C53.0393 38.5563 53.4242 37.9656 53.7023 37.3223C53.8091 37.0787 53.8655 37.0718 54.0347 37.2768C54.4557 37.7349 54.9716 38.0936 55.5458 38.3274C56.148 38.6153 56.7728 38.8554 57.389 39.1132C57.466 39.1414 57.5485 39.15 57.6295 39.1383C57.0338 38.0341 56.6319 36.8342 56.4416 35.5916ZM49.573 17.5415C49.5358 17.4884 49.5203 17.4229 49.5297 17.3587C49.5377 17.3262 49.6279 17.2939 49.6795 17.2965C49.8667 17.2943 50.0535 17.3141 50.2362 17.3553C50.4235 17.4104 50.6328 17.4773 50.6821 17.7213L49.573 17.5415ZM37.2313 7.72039C37.1691 7.70349 37.1158 7.6631 37.0824 7.60758C37.068 7.5774 37.1171 7.49447 37.1584 7.4632C37.3012 7.34096 37.4575 7.23577 37.6243 7.14976C37.7088 7.09162 37.8085 7.06005 37.9108 7.05902C38.0131 7.05799 38.1134 7.08758 38.1991 7.14403L37.2313 7.72039ZM21.5664 8.26094C21.5081 8.28855 21.4416 8.29246 21.3805 8.27186C21.3502 8.25818 21.3347 8.16285 21.3462 8.11205C21.3772 7.92565 21.4293 7.74349 21.5018 7.56918C21.5885 7.39267 21.6907 7.19656 21.9373 7.19028L21.5664 8.26094ZM9.72746 18.9602C9.69551 18.9692 9.62314 18.9061 9.5998 18.8596C9.50535 18.6965 9.42988 18.5228 9.37493 18.3423C9.33291 18.248 9.31942 18.1435 9.3362 18.0416C9.35297 17.9398 9.39925 17.8451 9.46919 17.7697L9.86339 18.8316C9.83611 18.8905 9.78743 18.9365 9.72746 18.9602ZM7.6497 34.6664C7.63113 34.6942 7.53544 34.6933 7.48785 34.6731C7.31124 34.6104 7.14241 34.5275 6.98472 34.4256C6.82734 34.3091 6.65348 34.1741 6.68967 33.9278L7.67095 34.4796C7.68788 34.5423 7.68027 34.6092 7.6497 34.6664ZM15.9377 47.9606C15.9905 47.9979 16.027 48.0543 16.0396 48.118C16.0429 48.1514 15.9688 48.2124 15.9193 48.2276C15.7438 48.2933 15.5613 48.3384 15.3756 48.3619C15.1807 48.3738 14.9615 48.382 14.8334 48.1694L15.9377 47.9606ZM30.8456 52.8796C30.9097 52.8739 30.9736 52.8933 31.0239 52.9339C31.0477 52.9572 31.0298 53.0521 31.0016 53.0958C30.9091 53.2601 30.7981 53.4131 30.6708 53.5518C30.5292 53.6874 30.3666 53.8362 30.1328 53.7565L30.8456 52.8796ZM45.5469 46.9064C45.5799 46.9087 45.627 46.9927 45.6334 47.0445C45.6678 47.2302 45.6809 47.4194 45.6722 47.6082C45.6508 47.804 45.6216 48.0236 45.3922 48.1151L45.3759 46.981C45.4213 46.9349 45.4825 46.9083 45.5469 46.9064ZM30.4104 21.602C32.0048 21.6634 33.545 22.2008 34.8365 23.146C36.128 24.0912 37.1128 25.4019 37.6662 26.9123C38.2196 28.4228 38.3169 30.0651 37.9455 31.6316C37.5743 33.1982 36.7513 34.6185 35.5806 35.7132C34.4098 36.8078 32.9439 37.5275 31.3683 37.7812C29.7926 38.035 28.1779 37.8115 26.7285 37.1388C25.2791 36.4661 24.0599 35.3746 23.2251 34.0023C22.3904 32.63 21.9776 31.0385 22.039 29.429C22.1237 27.2716 23.0527 25.2361 24.6221 23.7686C26.1915 22.3013 28.2731 21.5221 30.4104 21.602ZM53.5125 33.8872L52.7771 33.0301C52.7824 32.9654 52.8122 32.9051 52.8603 32.8619C52.8871 32.8421 52.9768 32.876 53.0146 32.9114C53.1594 33.0311 53.29 33.1674 53.4037 33.3175C53.4755 33.3909 53.5242 33.4843 53.5435 33.5857C53.5629 33.6871 53.5521 33.792 53.5125 33.8872Z" fill="white"/>
</svg>
