<svg width="48" height="48" viewBox="0 0 48 48" fill="none" xmlns="http://www.w3.org/2000/svg">
<path d="M43.5 1.12493H4.5C3.61512 1.11592 2.7628 1.45832 2.13007 2.07699C1.49734 2.69566 1.13588 3.54007 1.125 4.42493V43.5824C1.13785 44.466 1.50017 45.3085 2.13269 45.9255C2.7652 46.5426 3.6164 46.8839 4.5 46.8749H43.5C44.3849 46.8819 45.2367 46.5384 45.8691 45.9193C46.5015 45.3003 46.8631 44.4561 46.875 43.5712V4.41368C46.8592 3.53141 46.4958 2.69103 45.8639 2.0752C45.2319 1.45937 44.3824 1.11787 43.5 1.12493Z" fill="#0076B2"/>
<path d="M7.89748 18.2737H14.6887V40.1249H7.89748V18.2737ZM11.295 7.39868C12.0739 7.39868 12.8353 7.62971 13.4829 8.06253C14.1305 8.49536 14.6352 9.11053 14.9331 9.83023C15.231 10.5499 15.3088 11.3418 15.1565 12.1057C15.0043 12.8696 14.6289 13.5712 14.0779 14.1217C13.5268 14.6723 12.8249 15.047 12.0609 15.1985C11.2968 15.35 10.505 15.2715 9.78557 14.9729C9.06615 14.6743 8.45146 14.169 8.01925 13.521C7.58704 12.873 7.35674 12.1114 7.35748 11.3324C7.35848 10.2888 7.77376 9.28824 8.51208 8.55062C9.25039 7.81301 10.2513 7.39868 11.295 7.39868ZM18.9487 18.2737H25.4587V21.2737H25.5487C26.4562 19.5562 28.6687 17.7449 31.9725 17.7449C38.85 17.7299 40.125 22.2562 40.125 28.1249V40.1249H33.3337V29.4937C33.3337 26.9624 33.2887 23.7037 29.805 23.7037C26.3212 23.7037 25.7287 26.4637 25.7287 29.3287V40.1249H18.9487V18.2737Z" fill="white"/>
</svg>
