<svg width="60" height="54" viewBox="0 0 60 54" fill="none" xmlns="http://www.w3.org/2000/svg">
<g clip-path="url(#clip0_109_5)">
<path d="M30 32.0393C32.9535 32.0393 35.3478 29.645 35.3478 26.6915C35.3478 23.7379 32.9535 21.3436 30 21.3436C27.0465 21.3436 24.6522 23.7379 24.6522 26.6915C24.6522 29.645 27.0465 32.0393 30 32.0393Z" fill="#61DAFB"/>
<path d="M30 37.648C45.8482 37.648 58.6957 32.7426 58.6957 26.6915C58.6957 20.6404 45.8482 15.735 30 15.735C14.1518 15.735 1.30435 20.6404 1.30435 26.6915C1.30435 32.7426 14.1518 37.648 30 37.648Z" stroke="#61DAFB"/>
<path d="M20.5114 32.1697C28.4355 45.8947 39.1074 54.5682 44.3478 51.5427C49.5883 48.5171 47.4127 34.9381 39.4886 21.2132C31.5645 7.48831 20.8926 -1.18524 15.6522 1.84032C10.4118 4.86588 12.5873 18.4448 20.5114 32.1697Z" stroke="#61DAFB"/>
<path d="M20.5114 21.2132C12.5873 34.9382 10.4118 48.5171 15.6522 51.5427C20.8926 54.5682 31.5645 45.8947 39.4886 32.1698C47.4127 18.4448 49.5883 4.8659 44.3478 1.84034C39.1074 -1.18522 28.4355 7.48833 20.5114 21.2132Z" stroke="#61DAFB"/>
</g>
<defs>
<clipPath id="clip0_109_5">
<rect width="60" height="53.383" fill="white"/>
</clipPath>
</defs>
</svg>
