<svg width="24" height="46" viewBox="0 0 24 46" fill="none" xmlns="http://www.w3.org/2000/svg">
<g clip-path="url(#clip0_213_53)">
<path d="M23.6925 13.6792L11.8446 6.83965L0 13.6792V6.83965L11.8462 0L23.6942 6.83965V13.6792H23.6925Z" fill="#A435F0"/>
<path d="M0 19.4229H6.20556V34.5001C6.20556 38.3954 9.11448 40.2942 11.8462 40.2942C14.6016 40.2942 17.4886 38.3449 17.4886 34.4478V19.4229H23.6942V34.8592C23.6942 38.4477 22.566 41.2166 20.3098 43.1153C18.0518 45.0125 15.2323 45.9365 11.794 45.9365C8.35895 45.9365 5.53777 45.0141 3.33384 43.1154C1.12816 41.2182 0 38.5522 0 35.0126V19.4229Z" fill="#2A2A2A"/>
</g>
<defs>
<clipPath id="clip0_213_53">
<rect width="23.6942" height="46" fill="white"/>
</clipPath>
</defs>
</svg>
