<svg xmlns="http://www.w3.org/2000/svg" width="76" height="33" viewBox="0 0 76 33">
  <g id="Group_26" data-name="Group 26" transform="translate(-194 -67)">
    <g id="Polygon_1" data-name="Polygon 1" transform="translate(220 67)" fill="none">
      <path d="M17.952,4.1a3,3,0,0,1,5.1,0l15.1,24.315A3,3,0,0,1,35.6,33H5.4a3,3,0,0,1-2.548-4.583Z" stroke="none"/>
      <path d="M 20.4999942779541 7.580295562744141 L 7.193817138671875 28.99999618530273 L 33.80617904663086 28.99999618530273 L 20.4999942779541 7.580295562744141 M 20.49999618530273 2.685230255126953 C 21.48074913024902 2.685230255126953 22.46150207519531 3.157546997070313 23.0483226776123 4.102176666259766 L 38.15295028686523 28.41694641113281 C 39.39440155029297 30.41537666320801 37.95726013183594 32.99999618530273 35.60463333129883 32.99999618530273 L 5.395370483398438 32.99999618530273 C 3.042732238769531 32.99999618530273 1.605602264404297 30.41537666320801 2.847042083740234 28.41694641113281 L 17.9516716003418 4.102176666259766 C 18.53849220275879 3.157546997070313 19.51924514770508 2.685230255126953 20.49999618530273 2.685230255126953 Z" stroke="none" fill="#fe4400"/>
    </g>
    <g id="Rectangle_17" data-name="Rectangle 17" transform="translate(194 67)" fill="none" stroke="#ff9a75" stroke-width="4">
      <rect width="24" height="33" rx="4" stroke="none"/>
      <rect x="2" y="2" width="20" height="29" rx="2" fill="none"/>
    </g>
    <circle id="Ellipse_5" data-name="Ellipse 5" cx="3.5" cy="3.5" r="3.5" transform="translate(263 93)" fill="#ffbca4"/>
  </g>
</svg>
