<svg id="edonjqaq6fsj1" xmlns="http://www.w3.org/2000/svg" xmlns:xlink="http://www.w3.org/1999/xlink" viewBox="0 0 439.110000 355.580000" shape-rendering="geometricPrecision" text-rendering="geometricPrecision"><style><![CDATA[#edonjqaq6fsj5_ts {animation: edonjqaq6fsj5_ts__ts 2000ms linear infinite normal forwards}@keyframes edonjqaq6fsj5_ts__ts { 0% {transform: translate(237.606269px,339.368882px) scale(1,1)} 50% {transform: translate(237.606269px,339.368882px) scale(0.800000,0.800000)} 100% {transform: translate(237.606269px,339.368882px) scale(1,1)} }#edonjqaq6fsj6_to {animation: edonjqaq6fsj6_to__to 2000ms linear infinite normal forwards}@keyframes edonjqaq6fsj6_to__to { 0% {transform: translate(239.173156px,249.917314px)} 50% {transform: translate(237.606269px,225.021965px)} 100% {transform: translate(239.173156px,249.917314px)} }]]></style><g id="edonjqaq6fsj2"><g id="edonjqaq6fsj3"><path id="edonjqaq6fsj4" d="M149.480000,46.580000C121.310000,45.990000,118.140000,24.220000,87.480000,21.580000C59.410000,19.160000,27.480000,34.440000,11.480000,59.580000C-12.840000,97.830000,8.220000,145.670000,13.480000,157.580000C38.320000,213.820000,80.400000,208.150000,97.480000,261.580000C108.210000,295.120000,96.890000,313.830000,115.480000,332.580000C127.970000,345.170000,144.480000,347.640000,177.480000,352.580000C202.994892,356.248594,228.878442,356.584744,254.480000,353.580000C279.050000,350.790000,276.410000,348.160000,305.480000,344.580000C342.860000,339.980000,350.100000,343.980000,368.480000,337.580000C378.560000,334.070000,403.400000,325.500000,414.480000,304.580000C434.650000,266.510000,389.220000,224.900000,411.480000,185.580000C421.360000,168.140000,435.210000,171.650000,438.480000,156.580000C443.790000,132.130000,414.100000,98.580000,395.480000,77.580000C395.020000,77.050000,370.260000,49.100000,376.480000,40.580000C377.630000,39,380.220000,37.580000,380.480000,34.580000C380.800000,30.920000,377.400000,27.380000,374.480000,25.580000C367.770000,21.440000,362.850000,27.700000,355.480000,24.580000C353.050000,23.580000,353.060000,22.680000,344.480000,12.580000C335.480000,1.950000,333.890000,1.070000,332.480000,0.580000C329.990000,-0.290000,323.640000,-1.420000,312.480000,7.580000C303.280000,3.180000,296.190000,2.980000,291.480000,3.580000C276.480000,5.480000,268.560000,17.580000,254.480000,17.580000C250.383544,17.643216,246.292487,17.257583,242.280000,16.430000C236.420000,15.210000,234.280000,13.480000,225.480000,13.580000C188.840000,14,180,47.210000,149.480000,46.580000Z" transform="matrix(1 0 0 1 13.45451713500009 -0.00520101500037)" opacity="0.18" fill="rgb(255,146,113)" stroke="none" stroke-width="1"/><g id="edonjqaq6fsj5_ts" transform="translate(237.606269,339.368882) scale(1,1)"><ellipse id="edonjqaq6fsj5" rx="80" ry="9.500000" transform="translate(0,0)" opacity="0.28" fill="rgb(255,69,0)" stroke="none" stroke-width="1"/></g><g id="edonjqaq6fsj6_to" transform="translate(239.173156,249.917314)"><g id="edonjqaq6fsj6" transform="translate(-234.046890,-248.187950)"><rect id="edonjqaq6fsj7" width="9.170000" height="32.100000" rx="0" ry="0" transform="matrix(-0.41389900000000 0.91032300000000 -0.91032300000000 -0.41389900000000 298.17511764999995 323.93340324999997)" fill="rgb(51,51,51)" stroke="none" stroke-width="1"/><path id="edonjqaq6fsj8" d="M262.180000,292.430000L264.720000,292.430000C265.620224,292.430000,266.350000,293.159776,266.350000,294.060000L266.350000,367.490000C266.350000,368.390224,265.620224,369.120000,264.720000,369.120000L258,369.120000C257.099776,369.120000,256.370000,368.390224,256.370000,367.490000L256.370000,298.260000C256.370000,295.040180,258.980180,292.430000,262.200000,292.430000Z" transform="matrix(0.11077500000000 0.99384500000000 -0.99384500000000 0.11077500000000 561.13000000000000 34.38000000000000)" fill="rgb(66,33,11)" stroke="none" stroke-width="1"/><rect id="edonjqaq6fsj9" width="12" height="17" rx="4.580000" ry="5" transform="matrix(-0.99919400000000 -0.04013200000000 0.04013200000000 -0.99919400000000 233.87540175999919 343.79589308000050)" fill="rgb(66,33,11)" stroke="none" stroke-width="1"/><rect id="edonjqaq6fsj10" width="9.170000" height="32.100000" rx="0" ry="0" transform="matrix(0.41389900000000 0.91032300000000 -0.91032300000000 0.41389900000000 204.73566513999998 309.64683448000000)" fill="rgb(51,51,51)" stroke="none" stroke-width="1"/><path id="edonjqaq6fsj11" d="M278.470000,242.170000L284.260000,242.170000L284.260000,276.710000L274.260000,276.710000L274.260000,246.370000C274.265514,244.048787,276.148781,242.169993,278.470000,242.170000Z" transform="matrix(-0.74115600000000 0.67133300000000 -0.67133300000000 -0.74115600000000 660.39999999999998 264.24000000000001)" fill="rgb(96,56,19)" stroke="none" stroke-width="1"/><rect id="edonjqaq6fsj12" width="11.050000" height="32.100000" rx="0" ry="0" transform="matrix(-0.74115600000000 0.67133300000000 -0.67133300000000 -0.74115600000000 278.88396952000011 250.79327713999993)" fill="rgb(255,154,117)" stroke="none" stroke-width="1"/><rect id="edonjqaq6fsj13" width="9.040000" height="47.510000" rx="0" ry="0" transform="matrix(-0.85635700000000 -0.51638400000000 0.51638400000000 -0.85635700000000 267.27115006999986 310.07219124000005)" fill="rgb(96,56,19)" stroke="none" stroke-width="1"/><path id="edonjqaq6fsj14" d="M178.390000,243.170000L188.390000,243.170000L188.390000,277.710000L182.600000,277.710000C180.274881,277.710000,178.390000,275.825119,178.390000,273.500000L178.390000,243.170000Z" transform="matrix(0.74115600000000 0.67133300000000 -0.67133300000000 0.74115600000000 222.31000000000000 -55.70000000000000)" fill="rgb(96,56,19)" stroke="none" stroke-width="1"/><rect id="edonjqaq6fsj15" width="11.050000" height="32.100000" rx="0" ry="0" transform="matrix(0.74115600000000 0.67133300000000 -0.67133300000000 0.74115600000000 205.30868611999998 228.00186165999992)" fill="rgb(255,154,117)" stroke="none" stroke-width="1"/><path id="edonjqaq6fsj16" d="M216.190000,218.580000L248.830000,218.580000C255.264117,218.580000,260.480000,223.795883,260.480000,230.230000L260.480000,302.580000C260.480000,304.789139,258.689139,306.580000,256.480000,306.580000L207.480000,306.580000C205.270861,306.580000,203.480000,304.789139,203.480000,302.580000L203.480000,231.290000C203.480000,227.919098,204.819085,224.686260,207.202673,222.302673C209.586260,219.919085,212.819098,218.580000,216.190000,218.580000Z" fill="rgb(255,146,113)" stroke="none" stroke-width="1"/><rect id="edonjqaq6fsj17" width="55" height="6" rx="0" ry="0" transform="matrix(1 0 0 1 204.47999999999999 242.58000000000001)" fill="rgb(255,69,0)" stroke="none" stroke-width="1"/><rect id="edonjqaq6fsj18" width="9.040000" height="47.510000" rx="0" ry="0" transform="matrix(0.85635700000000 -0.51638400000000 0.51638400000000 0.85635700000000 170.80106927000003 270.40238335999993)" fill="rgb(96,56,19)" stroke="none" stroke-width="1"/><rect id="edonjqaq6fsj19" width="9" height="26" rx="4.500000" ry="5" transform="matrix(1 0 0 1 227.47999999999999 200.58000000000001)" fill="rgb(96,56,19)" stroke="none" stroke-width="1"/><rect id="edonjqaq6fsj20" width="5" height="10" rx="1.540000" ry="5" transform="matrix(1 0 0 1 249.47999999999999 174.58000000000001)" fill="rgb(96,56,19)" stroke="none" stroke-width="1"/><rect id="edonjqaq6fsj21" width="5" height="10" rx="1.540000" ry="5" transform="matrix(1 0 0 1 210.47999999999999 174.58000000000001)" fill="rgb(96,56,19)" stroke="none" stroke-width="1"/><path id="edonjqaq6fsj22" d="M217.650000,152.580000L247.840000,152.580000C249.850316,152.580000,251.480000,154.209684,251.480000,156.220000L251.480000,176.580000L213.480000,176.580000L213.480000,156.750000C213.480000,155.644047,213.919338,154.583391,214.701365,153.801365C215.483391,153.019338,216.544047,152.580000,217.650000,152.580000Z" fill="rgb(0,0,0)" stroke="none" stroke-width="1"/><path id="edonjqaq6fsj23" d="M241,207.580000L224.730000,207.580000C218.516797,207.580000,213.480000,202.543203,213.480000,196.330000L213.480000,165.190000C213.479998,163.435185,214.177779,161.752388,215.419558,160.512485C216.661337,159.272582,218.345187,158.577345,220.100000,158.580000L244.630000,158.580000C246.447547,158.577341,248.191417,159.298181,249.476618,160.583382C250.761819,161.868583,251.482659,163.612453,251.480000,165.430000L251.480000,197.090000C251.480003,202.879564,246.789561,207.574481,241,207.580000Z" fill="rgb(117,76,36)" stroke="none" stroke-width="1"/><rect id="edonjqaq6fsj24" width="2" height="35" rx="1" ry="0" transform="matrix(1 0 0 1 244.47999999999999 157.58000000000001)" fill="rgb(0,0,0)" stroke="none" stroke-width="1"/><rect id="edonjqaq6fsj25" width="2" height="35" rx="1" ry="0" transform="matrix(1 0 0 1 240.47999999999999 157.58000000000001)" fill="rgb(0,0,0)" stroke="none" stroke-width="1"/><circle id="edonjqaq6fsj26" r="1" transform="matrix(1 0 0 1 222.47999999999999 181.58000000000001)" fill="rgb(0,0,0)" stroke="none" stroke-width="1"/><rect id="edonjqaq6fsj27" width="5" height="8" rx="1.540000" ry="5" transform="matrix(1 0 0 1 229.47999999999999 185.58000000000001)" fill="rgb(166,124,82)" stroke="none" stroke-width="1"/><rect id="edonjqaq6fsj28" width="9" height="2" rx="0.660000" ry="5" transform="matrix(1 0 0 1 227.47999999999999 197.58000000000001)" fill="rgb(140,98,57)" stroke="none" stroke-width="1"/><rect id="edonjqaq6fsj29" width="23.090000" height="14.120000" rx="7.060000" ry="0" transform="matrix(0.70710700000000 0.70710700000000 -0.70710700000000 0.70710700000000 200.49796422000003 300.57082946000008)" fill="rgb(96,56,19)" stroke="none" stroke-width="1"/><rect id="edonjqaq6fsj30" width="23.090000" height="14.120000" rx="7.060000" ry="0" transform="matrix(-0.70710700000000 0.70710700000000 -0.70710700000000 -0.70710700000000 274.35644775999992 308.55911500000002)" fill="rgb(96,56,19)" stroke="none" stroke-width="1"/><rect id="edonjqaq6fsj31" width="92" height="58" rx="2" ry="2" transform="matrix(1 0 0 1 186.47999999999999 268.57999999999998)" fill="rgb(179,179,179)" stroke="none" stroke-width="1"/><circle id="edonjqaq6fsj32" r="7.500000" transform="matrix(1 0 0 1 231.97999999999999 298.07999999999998)" fill="rgb(77,77,77)" stroke="none" stroke-width="1"/><path id="edonjqaq6fsj33" d="M187.360000,323.580000L278,323.580000C278.254051,323.580000,278.460000,323.785949,278.460000,324.040000L278.460000,325.700000C278.460000,326.186011,278.066011,326.580000,277.580000,326.580000L187.360000,326.580000C186.873989,326.580000,186.480000,326.186011,186.480000,325.700000L186.480000,324.460000C186.480000,323.973989,186.873989,323.580000,187.360000,323.580000Z" fill="rgb(77,77,77)" stroke="none" stroke-width="1"/><path id="edonjqaq6fsj34" d="M209,291.430000L215.750000,291.430000C216.650224,291.430000,217.380000,292.159776,217.380000,293.060000L217.380000,366.490000C217.380000,367.390224,216.650224,368.120000,215.750000,368.120000L213.210000,368.120000C209.990180,368.120000,207.380000,365.509820,207.380000,362.290000L207.380000,293.050000C207.380000,292.149776,208.109776,291.420000,209.010000,291.420000Z" transform="matrix(-0.11077500000000 0.99384500000000 -0.99384500000000 -0.11077500000000 563.59000000000003 155.28999999999999)" fill="rgb(96,56,19)" stroke="none" stroke-width="1"/><rect id="edonjqaq6fsj35" width="12" height="17" rx="4.580000" ry="5" transform="matrix(0.99919400000000 -0.04013200000000 0.04013200000000 0.99919400000000 239.17315567999995 325.80677115999998)" fill="rgb(96,56,19)" stroke="none" stroke-width="1"/></g></g></g></g></svg>