<svg id="e6nd6bj1vrfy1" xmlns="http://www.w3.org/2000/svg" xmlns:xlink="http://www.w3.org/1999/xlink" viewBox="0 0 515.100000 414.690000" shape-rendering="geometricPrecision" text-rendering="geometricPrecision"><style><![CDATA[#e6nd6bj1vrfy9_ts {animation: e6nd6bj1vrfy9_ts__ts 5000ms linear infinite normal forwards}@keyframes e6nd6bj1vrfy9_ts__ts { 0% {transform: translate(169.790000px,177.830000px) scale(0.057004,1)} 20% {transform: translate(169.790000px,177.830000px) scale(0.765994,1)} 100% {transform: translate(169.790000px,177.830000px) scale(0.765994,1)} }#e6nd6bj1vrfy10_ts {animation: e6nd6bj1vrfy10_ts__ts 5000ms linear infinite normal forwards}@keyframes e6nd6bj1vrfy10_ts__ts { 0% {transform: translate(170.091620px,181.830000px) scale(0.010172,0.960616)} 20% {transform: translate(170.091620px,181.830000px) scale(0.010172,0.960616)} 40% {transform: translate(170.091620px,181.830000px) scale(0.638931,0.960616)} 100% {transform: translate(170.091620px,181.830000px) scale(0.638931,0.960616)} }#e6nd6bj1vrfy11_ts {animation: e6nd6bj1vrfy11_ts__ts 5000ms linear infinite normal forwards}@keyframes e6nd6bj1vrfy11_ts__ts { 0% {transform: translate(169.790000px,185.830000px) scale(0.022242,1)} 40% {transform: translate(169.790000px,185.830000px) scale(0.022242,1)} 60% {transform: translate(169.790000px,185.830000px) scale(1.435214,1)} 100% {transform: translate(169.790000px,185.830000px) scale(1.435214,1)} }#e6nd6bj1vrfy12_ts {animation: e6nd6bj1vrfy12_ts__ts 5000ms linear infinite normal forwards}@keyframes e6nd6bj1vrfy12_ts__ts { 0% {transform: translate(169.790000px,188.830000px) scale(0.009086,1)} 60% {transform: translate(169.790000px,188.830000px) scale(0.009086,1)} 80% {transform: translate(169.790000px,188.830000px) scale(0.667631,1)} 100% {transform: translate(169.790000px,188.830000px) scale(0.667631,1)} }#e6nd6bj1vrfy13_ts {animation: e6nd6bj1vrfy13_ts__ts 5000ms linear infinite normal forwards}@keyframes e6nd6bj1vrfy13_ts__ts { 0% {transform: translate(169.776792px,192.830000px) scale(0.006613,0.837912)} 80% {transform: translate(169.776792px,192.830000px) scale(0.006613,0.837912)} 100% {transform: translate(169.776792px,192.830000px) scale(0.807347,0.837912)} }#e6nd6bj1vrfy45_tr {animation: e6nd6bj1vrfy45_tr__tr 5000ms linear infinite normal forwards}@keyframes e6nd6bj1vrfy45_tr__tr { 0% {transform: translate(237.631701px,203.649295px) rotate(0deg)} 22% {transform: translate(237.631701px,203.649295px) rotate(-8deg)} 40% {transform: translate(237.631701px,203.649295px) rotate(0deg)} 100% {transform: translate(237.631701px,203.649295px) rotate(0deg)} }#e6nd6bj1vrfy48_tr {animation: e6nd6bj1vrfy48_tr__tr 5000ms linear infinite normal forwards}@keyframes e6nd6bj1vrfy48_tr__tr { 0% {transform: translate(185.289161px,207.330000px) rotate(0deg)} 20% {transform: translate(185.289161px,207.330000px) rotate(5deg)} 40% {transform: translate(185.289161px,207.330000px) rotate(0deg)} 100% {transform: translate(185.289161px,207.330000px) rotate(0deg)} }]]></style><g id="e6nd6bj1vrfy2"><g id="e6nd6bj1vrfy3"><rect id="e6nd6bj1vrfy4" width="92" height="58" rx="6.350000" ry="5" transform="matrix(1 0 0 1 163.28999999500007 156.32999999999998)" fill="rgb(18,37,45)" stroke="rgb(0,0,0)" stroke-width="3" stroke-miterlimit="10"/><path id="e6nd6bj1vrfy5" d="M161.670000,215.330000L257.330000,215.330000C257.584051,215.330000,257.790000,215.535949,257.790000,215.790000L257.790000,217.450000C257.790000,217.936011,257.396011,218.330000,256.910000,218.330000L161.670000,218.330000C161.183989,218.330000,160.790000,217.936011,160.790000,217.450000L160.790000,216.210000C160.790000,215.723989,161.183989,215.330000,161.670000,215.330000Z" fill="rgb(128,128,128)" stroke="none" stroke-width="1"/><rect id="e6nd6bj1vrfy6" width="19" height="1" rx="0" ry="0" transform="matrix(1 0 0 1 169.78999999999999 164.33000000000001)" fill="rgb(27,20,100)" stroke="none" stroke-width="1"/><rect id="e6nd6bj1vrfy7" width="26" height="1" rx="0" ry="0" transform="matrix(1 0 0 1 169.78999999999999 169.33000000000001)" fill="rgb(193,39,45)" stroke="none" stroke-width="1"/><rect id="e6nd6bj1vrfy8" width="10" height="1" rx="0" ry="0" transform="matrix(1 0 0 1 169.78999999999999 173.33000000000001)" fill="rgb(46,49,146)" stroke="none" stroke-width="1"/><g id="e6nd6bj1vrfy9_ts" transform="translate(169.790000,177.830000) scale(0.057004,1)"><rect id="e6nd6bj1vrfy9" width="26" height="1" rx="0" ry="0" transform="translate(0.393763,-0.500000)" fill="rgb(0,169,157)" stroke="none" stroke-width="1"/></g><g id="e6nd6bj1vrfy10_ts" transform="translate(170.091620,181.830000) scale(0.010172,0.960616)"><rect id="e6nd6bj1vrfy10" width="34" height="1" rx="0" ry="0" transform="translate(-0.301620,-0.500000)" fill="rgb(237,28,36)" stroke="none" stroke-width="1"/></g><g id="e6nd6bj1vrfy11_ts" transform="translate(169.790000,185.830000) scale(0.022242,1)"><rect id="e6nd6bj1vrfy11" width="13" height="1" rx="0" ry="0" transform="translate(0.055718,-0.500000)" fill="rgb(0,146,69)" stroke="none" stroke-width="1"/></g><g id="e6nd6bj1vrfy12_ts" transform="translate(169.790000,188.830000) scale(0.009086,1)"><rect id="e6nd6bj1vrfy12" width="34" height="1" rx="0" ry="0" transform="translate(0.108905,-0.500000)" fill="rgb(237,28,36)" stroke="none" stroke-width="1"/></g><g id="e6nd6bj1vrfy13_ts" transform="translate(169.776792,192.830000) scale(0.006613,0.837912)"><rect id="e6nd6bj1vrfy13" width="18" height="1" rx="0" ry="0" transform="translate(0,-0.500000)" fill="rgb(0,146,69)" stroke="none" stroke-width="1"/></g><ellipse id="e6nd6bj1vrfy14" rx="212" ry="9.500000" transform="matrix(1 0 0 1 238.78999999999999 391.82999999999998)" opacity="0.28" fill="rgb(255,69,0)" stroke="none" stroke-width="1"/><path id="e6nd6bj1vrfy15" d="M303.830000,204.330000L305.560000,204.330000C306.416649,204.330000,307.238212,204.670303,307.843955,205.276045C308.449697,205.881788,308.790000,206.703351,308.790000,207.560000L308.790000,209.290000C308.790000,210.946854,307.446854,212.290000,305.790000,212.290000L303.880000,212.290000C302.223146,212.290000,300.880000,210.946854,300.880000,209.290000L300.880000,207.380000C300.866628,206.584318,301.169944,205.815925,301.723200,205.243915C302.276456,204.671905,303.034315,204.343151,303.830000,204.330000Z" fill="none" stroke="rgb(255,164,136)" stroke-width="2" stroke-miterlimit="10"/><path id="e6nd6bj1vrfy16" d="M294.690000,199.330000L302.690000,199.330000C304.396560,199.330000,305.780000,200.713440,305.780000,202.420000L305.780000,216.420000C305.780000,218.021626,304.481626,219.320000,302.880000,219.320000L294.690000,219.320000C293.088374,219.320000,291.790000,218.021626,291.790000,216.420000L291.790000,202.230000C291.790000,200.628374,293.088374,199.330000,294.690000,199.330000Z" fill="rgb(255,146,113)" stroke="none" stroke-width="1"/><ellipse id="e6nd6bj1vrfy17" rx="5" ry="0.500000" transform="matrix(1 0 0 1 298.79000000000002 199.83000000000001)" fill="rgb(66,33,11)" stroke="none" stroke-width="1"/><rect id="e6nd6bj1vrfy18" width="5.580000" height="55.150000" rx="0" ry="0" transform="matrix(0.92945500000000 0.36893600000000 -0.36893600000000 0.92945500000000 192.39373653999999 33.37384001999999)" fill="rgb(255,146,113)" stroke="none" stroke-width="1"/><rect id="e6nd6bj1vrfy19" width="26" height="46" rx="4.340000" ry="2" transform="matrix(1 0 0 1 367.79000000000002 174.33000000000001)" fill="rgb(77,77,77)" stroke="none" stroke-width="1"/><circle id="e6nd6bj1vrfy20" r="10" transform="matrix(1 0 0 1 380.79000000000002 193.33000000000001)" fill="rgb(102,102,102)" stroke="none" stroke-width="1"/><circle id="e6nd6bj1vrfy21" r="3.500000" transform="matrix(1 0 0 1 381.29000000000002 192.83000000000001)" fill="rgb(0,0,0)" stroke="none" stroke-width="1"/><rect id="e6nd6bj1vrfy22" width="26" height="46" rx="4.340000" ry="2" transform="matrix(1 0 0 1 100.79000000000001 175.33000000000001)" fill="rgb(77,77,77)" stroke="none" stroke-width="1"/><rect id="e6nd6bj1vrfy23" width="312" height="18" rx="0" ry="0" transform="matrix(1 0 0 1 91.79000000000001 237.33000000000001)" fill="rgb(0,0,0)" stroke="none" stroke-width="1"/><rect id="e6nd6bj1vrfy24" width="14" height="172" rx="0" ry="0" transform="matrix(1 0 0 1 84.79000000000001 219.33000000000001)" fill="rgb(26,26,26)" stroke="none" stroke-width="1"/><rect id="e6nd6bj1vrfy25" width="324" height="18" rx="0" ry="0" transform="matrix(1 0 0 1 79.79000000000001 222.33000000000001)" fill="rgb(77,77,77)" stroke="none" stroke-width="1"/><path id="e6nd6bj1vrfy26" d="M85.640000,218.330000L402.940000,218.330000C403.695867,218.330000,404.420776,218.630267,404.955254,219.164746C405.489733,219.699224,405.790000,220.424133,405.790000,221.180000L405.790000,227.330000L80.930000,227.330000C80.300395,227.330000,79.790000,226.819605,79.790000,226.190000L79.790000,224.190000C79.790000,220.959134,82.409134,218.340000,85.640000,218.340000Z" fill="rgb(26,26,26)" stroke="none" stroke-width="1"/><rect id="e6nd6bj1vrfy27" width="94" height="154" rx="5.260000" ry="0" transform="matrix(1 0 0 1 309.79000000000002 237.33000000000001)" fill="rgb(26,26,26)" stroke="none" stroke-width="1"/><rect id="e6nd6bj1vrfy28" width="78" height="18" rx="3" ry="0" transform="matrix(1 0 0 1 317.79000000000002 265.32999999999998)" fill="rgb(77,77,77)" stroke="none" stroke-width="1"/><rect id="e6nd6bj1vrfy29" width="78" height="18" rx="2.890000" ry="0" transform="matrix(1 0 0 1 317.79000000000002 292.32999999999998)" fill="rgb(77,77,77)" stroke="none" stroke-width="1"/><circle id="e6nd6bj1vrfy30" r="4.500000" transform="matrix(1 0 0 1 356.29000000000002 273.82999999999998)" fill="rgb(0,0,0)" stroke="none" stroke-width="1"/><circle id="e6nd6bj1vrfy31" r="4.500000" transform="matrix(1 0 0 1 356.29000000000002 301.82999999999998)" fill="rgb(0,0,0)" stroke="none" stroke-width="1"/><circle id="e6nd6bj1vrfy32" r="10" transform="matrix(1 0 0 1 113.79000000000001 194.33000000000001)" fill="rgb(102,102,102)" stroke="none" stroke-width="1"/><circle id="e6nd6bj1vrfy33" r="3.500000" transform="matrix(1 0 0 1 114.29000000000001 193.83000000000001)" fill="rgb(0,0,0)" stroke="none" stroke-width="1"/><rect id="e6nd6bj1vrfy34" width="11" height="51" rx="0" ry="0" transform="matrix(1 0 0 1 142.78999999999999 36.33000000000000)" fill="rgb(0,255,255)" stroke="none" stroke-width="1"/><rect id="e6nd6bj1vrfy35" width="11" height="7" rx="0" ry="0" transform="matrix(1 0 0 1 142.78999999999999 42.33000000000000)" fill="rgb(0,113,188)" stroke="none" stroke-width="1"/><rect id="e6nd6bj1vrfy36" width="8" height="49" rx="0" ry="0" transform="matrix(1 0 0 1 154.78999999999999 38.33000000000000)" fill="rgb(255,0,0)" stroke="none" stroke-width="1"/><rect id="e6nd6bj1vrfy37" width="8" height="7" rx="0" ry="0" transform="matrix(1 0 0 1 154.78999999999999 42.33000000000000)" fill="rgb(0,0,0)" stroke="none" stroke-width="1"/><rect id="e6nd6bj1vrfy38" width="8" height="51" rx="0" ry="0" transform="matrix(1 0 0 1 163.78999999999999 36.33000000000000)" fill="rgb(0,0,0)" stroke="none" stroke-width="1"/><rect id="e6nd6bj1vrfy39" width="6" height="10" rx="0" ry="0" transform="matrix(1 0 0 1 164.78999999999999 42.33000000000000)" fill="rgb(242,242,242)" stroke="none" stroke-width="1"/><rect id="e6nd6bj1vrfy40" width="3" height="51" rx="0" ry="0" transform="matrix(1 0 0 1 138.78999999999999 36.33000000000000)" fill="rgb(83,71,65)" stroke="none" stroke-width="1"/><path id="e6nd6bj1vrfy41" d="M135.570000,25.330000L135.570000,25.330000C136.796072,25.330000,137.790000,26.323928,137.790000,27.550000L137.790000,89.330000L135.600000,89.330000C134.219288,89.330000,133.100000,88.210712,133.100000,86.830000L133.100000,27.830000C133.100000,26.465857,134.205857,25.360000,135.570000,25.360000Z" fill="rgb(128,128,128)" stroke="none" stroke-width="1"/><path id="e6nd6bj1vrfy42" d="M163.790000,56.330000L167.790000,56.330000L167.790000,116.330000C167.790000,118.539139,165.999139,120.330000,163.790000,120.330000L163.790000,120.330000L163.790000,56.330000Z" transform="matrix(0 1 -1 0 254.12000000000000 -77.45999999999999)" fill="rgb(128,128,128)" stroke="none" stroke-width="1"/><path id="e6nd6bj1vrfy43" d="M199.910000,26.330000L202.100000,26.330000L202.100000,88.110000C202.100000,89.336072,201.106072,90.330000,199.880000,90.330000L199.880000,90.330000C198.515857,90.330000,197.410000,89.224143,197.410000,87.860000L197.410000,28.860000C197.401981,28.191776,197.661828,27.548157,198.131541,27.072808C198.601254,26.597458,199.241728,26.329952,199.910000,26.330000Z" transform="matrix(-1 0 -0 -1 399.50999999999999 116.66000000000000)" fill="rgb(128,128,128)" stroke="none" stroke-width="1"/><rect id="e6nd6bj1vrfy44" width="5.390000" height="3.160000" rx="0" ry="0" transform="matrix(0.92945500000000 0.36893600000000 -0.36893600000000 0.92945500000000 176.54098182999999 73.43497631999998)" fill="rgb(0,113,188)" stroke="none" stroke-width="1"/><g id="e6nd6bj1vrfy45_tr" transform="translate(237.631701,203.649295) rotate(0)"><g id="e6nd6bj1vrfy45" transform="translate(-237.631701,-203.649295)"><path id="e6nd6bj1vrfy46" d="M248.430000,204.920000L254.220000,204.920000L254.220000,239.460000L244.220000,239.460000L244.220000,209.130000C244.220000,208.013439,244.663552,206.942609,245.453080,206.153080C246.242609,205.363552,247.313439,204.920000,248.430000,204.920000Z" transform="matrix(-0.74115600000000 0.67133300000000 -0.67133300000000 -0.74115600000000 583.10000000000002 219.55000000000001)" fill="rgb(96,56,19)" stroke="none" stroke-width="1"/><rect id="e6nd6bj1vrfy47" width="11.050000" height="32.100000" rx="0" ry="0" transform="matrix(-0.74115600000000 0.67133300000000 -0.67133300000000 -0.74115600000000 250.86047201000008 215.54484881999994)" fill="rgb(255,154,117)" stroke="none" stroke-width="1"/></g></g><g id="e6nd6bj1vrfy48_tr" transform="translate(185.289161,207.330000) rotate(0)"><g id="e6nd6bj1vrfy48" transform="translate(-185.289161,-207.330000)"><path id="e6nd6bj1vrfy49" d="M168.690000,206.920000L178.690000,206.920000L178.690000,241.460000L172.900000,241.460000C171.783439,241.460000,170.712609,241.016448,169.923080,240.226920C169.133552,239.437391,168.690000,238.366561,168.690000,237.250000L168.690000,206.920000Z" transform="matrix(0.74115628581741 0.67133268445558 -0.67133268445558 0.74115628581741 195.47000000000000 -58.58000000000000)" fill="rgb(96,56,19)" stroke="none" stroke-width="1"/><rect id="e6nd6bj1vrfy50" width="11.050000" height="32.100000" rx="0" ry="0" transform="matrix(0.74115600000000 0.67133300000000 -0.67133300000000 0.74115600000000 193.61772772999998 193.75938588999992)" fill="rgb(255,154,117)" stroke="none" stroke-width="1"/></g></g><rect id="e6nd6bj1vrfy51" width="9" height="26" rx="4.500000" ry="0" transform="matrix(1 0 0 1 208.78999999999999 166.33000000000001)" fill="rgb(96,56,19)" stroke="none" stroke-width="1"/><path id="e6nd6bj1vrfy52" d="M221.300000,172.330000L205,172.330000C198.786797,172.330000,193.750000,167.293203,193.750000,161.080000L193.750000,129.940000C193.750000,128.186919,194.446409,126.505640,195.686024,125.266024C196.925640,124.026409,198.606919,123.330000,200.360000,123.330000L224.900000,123.330000C226.716733,123.330000,228.459057,124.051694,229.743681,125.336319C231.028306,126.620943,231.750000,128.363267,231.750000,130.180000L231.750000,161.840000C231.750042,167.617882,227.077840,172.307968,221.300000,172.330000Z" fill="rgb(117,76,36)" stroke="none" stroke-width="1"/><rect id="e6nd6bj1vrfy53" width="9" height="28" rx="0" ry="0" transform="matrix(1 0 0 1 229.78999999999999 345.32999999999998)" fill="rgb(96,56,19)" stroke="none" stroke-width="1"/><rect id="e6nd6bj1vrfy54" width="9" height="15" rx="0" ry="0" transform="matrix(1 0 0 1 187.78999999999999 370.32999999999998)" fill="rgb(0,0,0)" stroke="none" stroke-width="1"/><rect id="e6nd6bj1vrfy55" width="9" height="28" rx="0" ry="0" transform="matrix(1 0 0 1 187.78999999999999 343.32999999999998)" fill="rgb(96,56,19)" stroke="none" stroke-width="1"/><rect id="e6nd6bj1vrfy56" width="15" height="87" rx="5.280000" ry="0" transform="matrix(1 0 0 1 184.78999999999999 278.32999999999998)" fill="rgb(51,51,51)" stroke="none" stroke-width="1"/><rect id="e6nd6bj1vrfy57" width="15" height="87" rx="4.120000" ry="0" transform="matrix(1 0 0 1 226.78999999999999 278.32999999999998)" fill="rgb(51,51,51)" stroke="none" stroke-width="1"/><path id="e6nd6bj1vrfy58" d="M192.240000,380.780000L192.240000,380.780000C194.772817,380.780000,197.201897,381.786158,198.992870,383.577130C200.783842,385.368103,201.790000,387.797183,201.790000,390.330000L201.790000,390.330000L183.790000,390.330000L183.790000,389.230000C183.790000,384.563194,187.573194,380.780000,192.240000,380.780000Z" fill="rgb(128,128,128)" stroke="none" stroke-width="1"/><rect id="e6nd6bj1vrfy59" width="9" height="15" rx="0" ry="0" transform="matrix(1 0 0 1 229.78999999999999 370.32999999999998)" fill="rgb(0,0,0)" stroke="none" stroke-width="1"/><path id="e6nd6bj1vrfy60" d="M234.240000,380.780000L234.240000,380.780000C236.772817,380.780000,239.201897,381.786158,240.992870,383.577130C242.783842,385.368103,243.790000,387.797183,243.790000,390.330000L243.790000,390.330000L225.790000,390.330000L225.790000,389.230000C225.790000,384.563194,229.573194,380.780000,234.240000,380.780000Z" fill="rgb(128,128,128)" stroke="none" stroke-width="1"/><path id="e6nd6bj1vrfy61" d="M183.790000,389.330000L201.790000,389.330000L201.790000,391.490000C201.790000,391.953919,201.413919,392.330000,200.950000,392.330000L184.730000,392.330000C184.210852,392.330000,183.790000,391.909148,183.790000,391.390000L183.790000,389.330000Z" fill="rgb(204,204,204)" stroke="none" stroke-width="1"/><path id="e6nd6bj1vrfy62" d="M225.790000,389.330000L243.790000,389.330000L243.790000,391.490000C243.790000,391.953919,243.413919,392.330000,242.950000,392.330000L226.730000,392.330000C226.210852,392.330000,225.790000,391.909148,225.790000,391.390000L225.790000,389.330000Z" fill="rgb(204,204,204)" stroke="none" stroke-width="1"/><path id="e6nd6bj1vrfy63" d="M196.500000,184.330000L229.140000,184.330000C232.233240,184.329995,235.199499,185.560148,237.384873,187.749274C239.570248,189.938400,240.795310,192.906764,240.790000,196L240.790000,268.350000C240.790000,270.559139,238.999139,272.350000,236.790000,272.350000L187.790000,272.350000C185.580861,272.350000,183.790000,270.559139,183.790000,268.350000L183.790000,197C183.812042,189.996087,189.496052,184.329965,196.500000,184.330000Z" fill="rgb(255,146,113)" stroke="none" stroke-width="1"/><path id="e6nd6bj1vrfy64" d="M198.140000,263.330000L228.500000,263.330000C232.820377,263.330000,236.963802,265.046263,240.018769,268.101231C243.073737,271.156198,244.790000,275.299623,244.790000,279.620000L244.790000,280.680000C244.790000,285.457263,240.917263,289.330000,236.140000,289.330000L189.440000,289.330000C184.662737,289.330000,180.790000,285.457263,180.790000,280.680000L180.790000,280.680000C180.790000,276.078494,182.617941,271.665454,185.871697,268.411697C189.125454,265.157941,193.538494,263.330000,198.140000,263.330000Z" fill="rgb(255,146,113)" stroke="none" stroke-width="1"/><path id="e6nd6bj1vrfy65" d="M211.550000,385.330000L217.850000,385.330000C218.921432,385.330000,219.790000,386.198568,219.790000,387.270000L219.790000,387.380000C219.790000,388.451432,218.921432,389.320000,217.850000,389.320000L212,389.320000C211.405915,389.320000,210.836162,389.084001,210.416081,388.663919C209.995999,388.243838,209.760000,387.674085,209.760000,387.080000L209.760000,387.080000C209.760000,386.107979,210.547979,385.320000,211.520000,385.320000Z" transform="matrix(0 1 -1 0 602.12000000000000 172.53999999999999)" fill="rgb(26,26,26)" stroke="none" stroke-width="1"/><path id="e6nd6bj1vrfy66" d="M241.550000,386.330000L247.850000,386.330000C248.921432,386.330000,249.790000,387.198568,249.790000,388.270000L249.790000,388.380000C249.790000,389.451432,248.921432,390.320000,247.850000,390.320000L242,390.320000C241.405915,390.320000,240.836162,390.084001,240.416081,389.663919C239.995999,389.243838,239.760000,388.674085,239.760000,388.080000L239.760000,388.080000C239.760000,387.107979,240.547979,386.320000,241.520000,386.320000Z" transform="matrix(0 1 -1 0 633.12000000000000 143.53999999999999)" fill="rgb(26,26,26)" stroke="none" stroke-width="1"/><path id="e6nd6bj1vrfy67" d="M183.550000,386.330000L189.850000,386.330000C190.921432,386.330000,191.790000,387.198568,191.790000,388.270000L191.790000,388.380000C191.790000,389.451432,190.921432,390.320000,189.850000,390.320000L184,390.320000C183.405915,390.320000,182.836162,390.084001,182.416081,389.663919C181.995999,389.243838,181.760000,388.674085,181.760000,388.080000L181.760000,388.080000C181.760000,387.107979,182.547979,386.320000,183.520000,386.320000Z" transform="matrix(0 1 -1 0 575.12000000000000 201.53999999999999)" fill="rgb(26,26,26)" stroke="none" stroke-width="1"/><rect id="e6nd6bj1vrfy68" width="31.950000" height="6.320000" rx="3.160000" ry="0" transform="matrix(-0.95470900000000 0.29754100000000 -0.29754100000000 -0.95470900000000 211.86697297000018 377.44546410999988)" fill="rgb(51,51,51)" stroke="none" stroke-width="1"/><rect id="e6nd6bj1vrfy69" width="25" height="8" rx="3.710000" ry="0" transform="matrix(1 0 0 1 201.78999999999999 370.32999999999998)" fill="rgb(51,51,51)" stroke="none" stroke-width="1"/><rect id="e6nd6bj1vrfy70" width="13" height="79" rx="3.500000" ry="0" transform="matrix(1 0 0 1 207.78999999999999 297.32999999999998)" fill="rgb(102,102,102)" stroke="none" stroke-width="1"/><rect id="e6nd6bj1vrfy71" width="4" height="54.860000" rx="0" ry="0" transform="matrix(1 0 0 1 253.78999999999999 237.47000000000000)" fill="rgb(128,128,128)" stroke="none" stroke-width="1"/><rect id="e6nd6bj1vrfy72" width="12" height="7.840000" rx="2.160000" ry="5" transform="matrix(1 0 0 1 249.78999999999999 234.33000000000001)" fill="rgb(26,26,26)" stroke="none" stroke-width="1"/><rect id="e6nd6bj1vrfy73" width="4" height="54.860000" rx="0" ry="0" transform="matrix(1 0 0 1 166.78999999999999 237.47000000000000)" fill="rgb(128,128,128)" stroke="none" stroke-width="1"/><rect id="e6nd6bj1vrfy74" width="36" height="85" rx="0" ry="0" transform="matrix(1 0 0 1 194.78999999999999 207.33000000000001)" fill="rgb(102,102,102)" stroke="none" stroke-width="1"/><rect id="e6nd6bj1vrfy75" width="69" height="49" rx="11.660000" ry="10" transform="matrix(1 0 0 1 180.16500000000019 181.52572949999998)" fill="rgb(26,26,26)" stroke="none" stroke-width="1"/><rect id="e6nd6bj1vrfy76" width="104" height="24" rx="11.660000" ry="10" transform="matrix(1 0 0 1 160.78999999999999 289.32999999999998)" fill="rgb(26,26,26)" stroke="none" stroke-width="1"/><rect id="e6nd6bj1vrfy77" width="12" height="7.840000" rx="2.160000" ry="5" transform="matrix(1 0 0 1 162.78999999999999 234.33000000000001)" fill="rgb(26,26,26)" stroke="none" stroke-width="1"/><rect id="e6nd6bj1vrfy78" width="31.950000" height="6.320000" rx="3.160000" ry="0" transform="matrix(0.95470900000000 0.29754100000000 -0.29754100000000 0.95470900000000 221.37865339000001 371.40646047000001)" fill="rgb(51,51,51)" stroke="none" stroke-width="1"/><path id="e6nd6bj1vrfy79" d="M212.890000,377.610000L216.730000,377.610000C217.125173,377.610000,217.504160,377.766982,217.783589,378.046411C218.063018,378.325840,218.220000,378.704827,218.220000,379.100000L218.220000,382.450000C218.220000,382.845173,218.063018,383.224160,217.783589,383.503589C217.504160,383.783018,217.125173,383.940000,216.730000,383.940000L212.850000,383.940000C211.883502,383.940000,211.100000,383.156498,211.100000,382.190000L211.100000,379.400000C211.100000,378.925262,211.288589,378.469969,211.624279,378.134279C211.959969,377.798589,212.415262,377.610000,212.890000,377.610000Z" transform="matrix(0 -1 1 0 -166.11000000000001 595.42999999999995)" fill="rgb(51,51,51)" stroke="none" stroke-width="1"/><path id="e6nd6bj1vrfy80" d="M202.330000,117.330000L223.780000,117.330000C228.198278,117.330000,231.780000,120.911722,231.780000,125.330000L231.780000,137C231.780000,138.158996,231.319591,139.270523,230.500057,140.090057C229.680523,140.909591,228.568996,141.370000,227.410000,141.370000L198.160000,141.370000C197.001004,141.370000,195.889477,140.909591,195.069943,140.090057C194.250409,139.270523,193.790000,138.158996,193.790000,137L193.790000,125.870000C193.790000,123.605051,194.689747,121.432869,196.291308,119.831308C197.892869,118.229747,200.065051,117.330000,202.330000,117.330000Z" fill="rgb(0,0,0)" stroke="none" stroke-width="1"/></g></g></svg>