<svg id="ea980pmtx81e1" xmlns="http://www.w3.org/2000/svg" xmlns:xlink="http://www.w3.org/1999/xlink" viewBox="0 0 452.850000 392.350000" shape-rendering="geometricPrecision" text-rendering="geometricPrecision"><style><![CDATA[#ea980pmtx81e19_tr {animation: ea980pmtx81e19_tr__tr 2000ms linear infinite normal forwards}@keyframes ea980pmtx81e19_tr__tr { 0% {transform: translate(319.900359px,68.867360px) rotate(0deg)} 50% {transform: translate(319.900359px,68.867360px) rotate(15deg)} 100% {transform: translate(319.900359px,68.867360px) rotate(0deg)} }]]></style><g id="ea980pmtx81e2"><g id="ea980pmtx81e3"><ellipse id="ea980pmtx81e4" rx="7" ry="112.500000" transform="matrix(1 0 0 1 348.30000000000001 194.84999999999999)" opacity="0.28" fill="rgb(255,69,0)" stroke="none" stroke-width="1"/><ellipse id="ea980pmtx81e5" rx="80" ry="9.500000" transform="matrix(1 0 0 1 296.30000000000001 364.85000000000002)" opacity="0.28" fill="rgb(255,69,0)" stroke="none" stroke-width="1"/><rect id="ea980pmtx81e6" width="9" height="28" rx="0" ry="0" transform="matrix(0.22257000000000 -0.97491700000000 0.97491700000000 0.22257000000000 308.22081448000006 263.12717268000000)" fill="rgb(96,56,19)" stroke="none" stroke-width="1"/><rect id="ea980pmtx81e7" width="15" height="69.720000" rx="5.870000" ry="5" transform="matrix(0.22257000000000 -0.97491700000000 0.97491700000000 0.22257000000000 253.29914950000003 253.42244035000004)" fill="rgb(26,26,26)" stroke="none" stroke-width="1"/><rect id="ea980pmtx81e8" width="9" height="15" rx="0" ry="0" transform="matrix(0.22257000000000 -0.97491700000000 0.97491700000000 0.22257000000000 329.66649703000007 268.01099914000002)" fill="rgb(0,0,0)" stroke="none" stroke-width="1"/><path id="ea980pmtx81e9" d="M337,271.610000L357,271.610000C357.463919,271.610000,357.840000,271.986081,357.840000,272.450000L357.840000,280.400000L328.250000,280.400000L328.250000,280.400000C328.249950,275.560995,332.161045,271.632020,337,271.610000Z" transform="matrix(0.22257000000000 -0.97491700000000 0.97491700000000 0.22257000000000 -2.37000000000000 549.04999999999995)" fill="rgb(128,128,128)" stroke="none" stroke-width="1"/><path id="ea980pmtx81e10" d="M333.740000,275.580000L363.320000,275.580000C363.447304,275.580000,363.569394,275.630571,363.659411,275.720589C363.749429,275.810606,363.800000,275.932696,363.800000,276.060000L363.800000,277.500000C363.800000,277.963919,363.423919,278.340000,362.960000,278.340000L334.680000,278.340000C334.160852,278.340000,333.740000,277.919148,333.740000,277.400000L333.740000,275.570000Z" transform="matrix(0.22257000000000 -0.97491700000000 0.97491700000000 0.22257000000000 1.14000000000000 555.35000000000002)" fill="rgb(204,204,204)" stroke="none" stroke-width="1"/><circle id="ea980pmtx81e11" r="1.500000" transform="matrix(1 0 0 1 344.80000000000001 266.85000000000002)" fill="rgb(230,230,230)" stroke="none" stroke-width="1"/><path id="ea980pmtx81e12" d="M280.880000,196.320000L284.800000,196.320000C287.716063,196.320000,290.080000,198.683937,290.080000,201.600000L290.080000,261C290.080000,263.916063,287.716063,266.280000,284.800000,266.280000L282.490000,266.280000C278.684758,266.280000,275.600000,263.195242,275.600000,259.390000L275.600000,201.600000C275.600000,198.683937,277.963936,196.320000,280.880000,196.320000Z" transform="matrix(0.54741700000000 0.83686000000000 -0.83686000000000 0.54741700000000 321.54000000000002 -132.00999999999999)" fill="rgb(26,26,26)" stroke="none" stroke-width="1"/><path id="ea980pmtx81e13" d="M301.720000,119.590000L307.510000,119.590000L307.510000,154.130000L297.510000,154.130000L297.510000,123.800000C297.510000,121.474881,299.394881,119.590000,301.720000,119.590000Z" transform="matrix(-0.62142100000000 -0.78347700000000 0.78347700000000 -0.62142100000000 383.25000000000000 458.92000000000002)" fill="rgb(66,33,11)" stroke="none" stroke-width="1"/><rect id="ea980pmtx81e14" width="9.040000" height="47.510000" rx="0" ry="0" transform="matrix(0.57143000000000 -0.82065100000000 0.82065100000000 0.57143000000000 252.77699110999990 121.61214046999999)" fill="rgb(66,33,11)" stroke="none" stroke-width="1"/><rect id="ea980pmtx81e15" width="23.090000" height="14.120000" rx="7.060000" ry="15" transform="matrix(-0.65934600000000 -0.75184000000000 0.75184000000000 -0.65934600000000 252.24907089000001 124.40360233000004)" fill="rgb(66,33,11)" stroke="none" stroke-width="1"/><path id="ea980pmtx81e16" d="M315.740000,109.330000L318.740000,109.330000C319.593997,109.330000,320.413017,109.669249,321.016884,110.273116C321.620751,110.876983,321.960000,111.696003,321.960000,112.550000L321.960000,141.430000L311.060000,141.430000C310.982680,141.430000,310.920000,141.367320,310.920000,141.290000L310.920000,114.150000C310.920000,111.487987,313.077988,109.330000,315.740000,109.330000Z" transform="matrix(0.62142100000000 0.78347700000000 -0.78347700000000 0.62142100000000 218.06000000000000 -200.47000000000000)" fill="rgb(255,154,117)" stroke="none" stroke-width="1"/><path id="ea980pmtx81e17" d="M312.940000,101.450000L324.580000,101.450000C331.014117,101.450000,336.230000,106.665883,336.230000,113.100000L336.230000,185.450000C336.230000,187.659139,334.439139,189.450000,332.230000,189.450000L304.230000,189.450000C302.020861,189.450000,300.230000,187.659139,300.230000,185.450000L300.230000,114.160000C300.230000,107.140461,305.920461,101.450000,312.940000,101.450000Z" transform="matrix(0.97309900000000 0.23038900000000 -0.23038900000000 0.97309900000000 42.07000000000000 -69.40000000000001)" fill="rgb(255,146,113)" stroke="none" stroke-width="1"/><rect id="ea980pmtx81e18" width="9" height="26" rx="2.320000" ry="5" transform="matrix(0.97417300000000 -0.22580100000000 0.22580100000000 0.97417300000000 314.97198981999998 83.47101215999999)" fill="rgb(96,56,19)" stroke="none" stroke-width="1"/><g id="ea980pmtx81e19_tr" transform="translate(319.900359,68.867360) rotate(0)"><g id="ea980pmtx81e19" transform="translate(-319.900359,-68.867360)"><rect id="ea980pmtx81e20" width="5" height="8" rx="1.540000" ry="5" transform="matrix(0.97417300000000 -0.22580100000000 0.22580100000000 0.97417300000000 292.47561609000002 66.09967326999998)" fill="rgb(66,33,11)" stroke="none" stroke-width="1"/><path id="ea980pmtx81e21" d="M327.840000,83.600000L312,87.270000C305.947894,88.667196,299.907428,84.899735,298.500000,78.850000L291.500000,48.520000C290.676620,44.960905,292.891872,41.407550,296.450000,40.580000L320.330000,35C324.015662,34.151738,327.692581,36.446457,328.550000,40.130000L335.690000,71C336.321885,73.711977,335.849551,76.563911,334.377080,78.927368C332.904610,81.290824,330.552842,82.971841,327.840000,83.600000Z" fill="rgb(117,76,36)" stroke="none" stroke-width="1"/><path id="ea980pmtx81e22" d="M296.050000,26L319.500000,26C323.918278,26,327.500000,29.581722,327.500000,34L327.500000,45.640000C327.494529,48.041793,325.551774,49.989014,323.150000,50L291.890000,50C290.731004,50,289.619477,49.539591,288.799943,48.720057C287.980409,47.900523,287.520000,46.788996,287.520000,45.630000L287.520000,34.550000C287.517346,32.285051,288.414550,30.111814,290.014235,28.508377C291.613921,26.904941,293.785051,26.002651,296.050000,26Z" transform="matrix(0.97417300000000 -0.22580100000000 0.22580100000000 0.97417300000000 -0.64000000000000 70.39000000000000)" fill="rgb(0,0,0)" stroke="none" stroke-width="1"/><rect id="ea980pmtx81e23" width="2" height="35" rx="1" ry="0" transform="matrix(0.97421300000000 -0.22563100000000 0.22563100000000 0.97421300000000 297.50879215000003 49.46067355000000)" fill="rgb(0,0,0)" stroke="none" stroke-width="1"/><circle id="ea980pmtx81e24" r="1" transform="matrix(1 0 0 1 298.30000000000001 62.35000000000000)" fill="rgb(0,0,0)" stroke="none" stroke-width="1"/></g></g><path id="ea980pmtx81e25" d="M294.720000,134.590000L300.510000,134.590000L300.510000,169.130000L290.510000,169.130000L290.510000,138.800000C290.510000,136.474881,292.394881,134.590000,294.720000,134.590000Z" transform="matrix(-0.62142100000000 -0.78347700000000 0.78347700000000 -0.62142100000000 360.13999999999999 477.75999999999999)" fill="rgb(96,56,19)" stroke="none" stroke-width="1"/><path id="ea980pmtx81e26" d="M308.740000,124.330000L311.740000,124.330000C312.593997,124.330000,313.413017,124.669249,314.016884,125.273116C314.620751,125.876983,314.960000,126.696003,314.960000,127.550000L314.960000,156.430000L304.060000,156.430000C303.982680,156.430000,303.920000,156.367320,303.920000,156.290000L303.920000,129.150000C303.920000,126.487987,306.077988,124.330000,308.740000,124.330000Z" transform="matrix(0.62142100000000 0.78347700000000 -0.78347700000000 0.62142100000000 227.16000000000000 -189.30000000000001)" fill="rgb(255,154,117)" stroke="none" stroke-width="1"/><rect id="ea980pmtx81e27" width="9.040000" height="47.510000" rx="0" ry="0" transform="matrix(0.57143000000000 -0.82065100000000 0.82065100000000 0.57143000000000 245.77674610999989 136.60814746999995)" fill="rgb(96,56,19)" stroke="none" stroke-width="1"/><path id="ea980pmtx81e28" d="M244.060000,91.920000L245.110000,91.920000L245.110000,129.400000L243.860000,129.400000L243.860000,92.110000C243.860000,92.005066,243.945066,91.920000,244.050000,91.920000Z" transform="matrix(0.70710700000000 -0.70710700000000 0.70710700000000 0.70710700000000 -6.64000000000000 205.28999999999999)" fill="rgb(0,0,0)" stroke="none" stroke-width="1"/><rect id="ea980pmtx81e29" width="6.360000" height="36.060000" rx="0" ry="0" transform="matrix(0.70710700000000 -0.70710700000000 0.70710700000000 0.70710700000000 227.30131158000006 102.34445990000000)" fill="rgb(179,179,179)" stroke="none" stroke-width="1"/><path id="ea980pmtx81e30" d="M240.060000,95.920000L241.110000,95.920000L241.110000,133.400000L239.860000,133.400000L239.860000,96.110000C239.859928,96.057827,239.881312,96.007921,239.919137,95.971987C239.956963,95.936053,240.007900,95.917254,240.060000,95.920000Z" transform="matrix(0.70710700000000 -0.70710700000000 0.70710700000000 0.70710700000000 -10.64000000000000 203.63000000000000)" fill="rgb(0,0,0)" stroke="none" stroke-width="1"/><rect id="ea980pmtx81e31" width="1.250000" height="6.330000" rx="0.460000" ry="0" transform="matrix(0.67867300000000 0.73444100000000 -0.73444100000000 0.67867300000000 231.28193758999998 97.32177823000001)" fill="rgb(0,0,0)" stroke="none" stroke-width="1"/><rect id="ea980pmtx81e32" width="1.250000" height="6.360000" rx="0.410000" ry="0" transform="matrix(0.70710700000000 0.70710700000000 -0.70710700000000 0.70710700000000 257.33519507000005 123.37795353000007)" fill="rgb(0,0,0)" stroke="none" stroke-width="1"/><rect id="ea980pmtx81e33" width="23.090000" height="14.120000" rx="7.060000" ry="15" transform="matrix(-0.50000000000000 -0.86602500000000 0.86602500000000 -0.50000000000000 242.45563525000000 139.59805850000004)" fill="rgb(96,56,19)" stroke="none" stroke-width="1"/><path id="ea980pmtx81e34" d="M288.800000,183.110000L324.800000,183.110000L324.800000,211.540000C324.800000,217.929935,319.619935,223.110000,313.230000,223.110000L298.850000,223.110000C296.184574,223.110000,293.628317,222.051164,291.743577,220.166423C289.858836,218.281683,288.800000,215.725426,288.800000,213.060000L288.800000,183.110000Z" transform="matrix(0.99424500000000 0.10713200000000 -0.10713200000000 0.99424500000000 23.54000000000000 -31.72000000000000)" fill="rgb(51,51,51)" stroke="none" stroke-width="1"/><path id="ea980pmtx81e35" d="M292.880000,208.320000L296.800000,208.320000C299.716063,208.320000,302.080000,210.683937,302.080000,213.600000L302.080000,273C302.080000,275.916063,299.716063,278.280000,296.800000,278.280000L294.490000,278.280000C290.684758,278.280000,287.600000,275.195242,287.600000,271.390000L287.600000,213.600000C287.600000,210.683937,289.963936,208.320000,292.880000,208.320000Z" transform="matrix(0.86602500000000 0.50000000000000 -0.50000000000000 0.86602500000000 161.15000000000001 -114.81999999999999)" fill="rgb(51,51,51)" stroke="none" stroke-width="1"/><rect id="ea980pmtx81e36" width="9" height="28" rx="0" ry="0" transform="matrix(1 0 0 1 277.30000000000001 318.35000000000002)" fill="rgb(96,56,19)" stroke="none" stroke-width="1"/><rect id="ea980pmtx81e37" width="15" height="69.720000" rx="5.870000" ry="5" transform="matrix(1 0 0 1 274.52999999999997 262.64999999999998)" fill="rgb(51,51,51)" stroke="none" stroke-width="1"/><rect id="ea980pmtx81e38" width="9" height="15" rx="0" ry="0" transform="matrix(1 0 0 1 277.30000000000001 340.35000000000002)" fill="rgb(0,0,0)" stroke="none" stroke-width="1"/><path id="ea980pmtx81e39" d="M266.210000,354.260000L286.210000,354.260000C286.673919,354.260000,287.050000,354.636081,287.050000,355.100000L287.050000,363.050000L257.420000,363.050000L257.420000,363.050000C257.420000,358.195417,261.355417,354.260000,266.210000,354.260000Z" transform="matrix(0.99938500000000 0.03507400000000 -0.03507400000000 0.99938500000000 12.76000000000000 -9.34000000000000)" fill="rgb(128,128,128)" stroke="none" stroke-width="1"/><path id="ea980pmtx81e40" d="M257.360000,363.060000L286.940000,363.060000C287.067304,363.060000,287.189394,363.110571,287.279411,363.200589C287.369429,363.290606,287.420000,363.412696,287.420000,363.540000L287.420000,365C287.420000,365.463919,287.043919,365.840000,286.580000,365.840000L258.290000,365.840000C257.770852,365.840000,257.350000,365.419148,257.350000,364.900000L257.350000,363.070000Z" transform="matrix(0.99938500000000 0.03507400000000 -0.03507400000000 0.99938500000000 12.96000000000000 -9.34000000000000)" fill="rgb(204,204,204)" stroke="none" stroke-width="1"/><circle id="ea980pmtx81e41" r="1.500000" transform="matrix(1 0 0 1 282.80000000000001 358.85000000000002)" fill="rgb(230,230,230)" stroke="none" stroke-width="1"/></g></g></svg>