<svg id="ebuizcrlrymh1" xmlns="http://www.w3.org/2000/svg" xmlns:xlink="http://www.w3.org/1999/xlink" viewBox="0 0 452.850000 392.350000" shape-rendering="geometricPrecision" text-rendering="geometricPrecision"><style><![CDATA[#ebuizcrlrymh36_tr {animation: ebuizcrlrymh36_tr__tr 1000ms linear infinite normal backwards}@keyframes ebuizcrlrymh36_tr__tr { 0% {transform: translate(318.240196px,107.518258px) rotate(0deg);animation-timing-function: cubic-bezier(0.420000,0,0.580000,1)} 50% {transform: translate(318.240196px,107.518258px) rotate(20deg)} 100% {transform: translate(318.240196px,107.518258px) rotate(0deg)} }]]></style><g id="ebuizcrlrymh2"><g id="ebuizcrlrymh3"><ellipse id="ebuizcrlrymh4" rx="80" ry="9.500000" transform="matrix(1 0 0 1 257.30000000000001 372.85000000000002)" opacity="0.28" fill="rgb(255,69,0)" stroke="none" stroke-width="1"/><path id="ebuizcrlrymh5" d="M301.200000,91.940000L311.200000,91.940000L311.200000,126.480000L305.410000,126.480000C303.084881,126.480000,301.200000,124.595119,301.200000,122.270000L301.200000,91.940000Z" transform="matrix(-0.22222900000000 -0.97499400000000 0.97499400000000 -0.22222900000000 267.77999999999997 432.01999999999998)" fill="rgb(96,56,19)" stroke="none" stroke-width="1"/><rect id="ebuizcrlrymh6" width="11.050000" height="32.100000" rx="0" ry="0" transform="matrix(0.22222900000000 0.97499400000000 -0.97499400000000 0.22222900000000 298.85295266000003 105.42710405000003)" fill="rgb(255,154,117)" stroke="none" stroke-width="1"/><path id="ebuizcrlrymh7" d="M202.200000,124.940000L212.200000,124.940000L212.200000,159.480000L206.410000,159.480000C205.293439,159.480000,204.222609,159.036448,203.433080,158.246920C202.643552,157.457391,202.200000,156.386561,202.200000,155.270000L202.200000,124.940000Z" transform="matrix(0.74115600000000 0.67133300000000 -0.67133300000000 0.74115600000000 149.09999999999999 -102.29000000000001)" fill="rgb(96,56,19)" stroke="none" stroke-width="1"/><rect id="ebuizcrlrymh8" width="11.050000" height="32.100000" rx="0" ry="0" transform="matrix(0.74115600000000 0.67133300000000 -0.67133300000000 0.74115600000000 227.11974462999996 111.77578583999995)" fill="rgb(255,154,117)" stroke="none" stroke-width="1"/><rect id="ebuizcrlrymh9" width="9" height="28" rx="0" ry="0" transform="matrix(1 0 0 1 270.30000000000001 324.35000000000002)" fill="rgb(96,56,19)" stroke="none" stroke-width="1"/><rect id="ebuizcrlrymh10" width="9" height="15" rx="0" ry="0" transform="matrix(1 0 0 1 228.30000000000001 349.35000000000002)" fill="rgb(0,0,0)" stroke="none" stroke-width="1"/><rect id="ebuizcrlrymh11" width="9" height="28" rx="0" ry="0" transform="matrix(1 0 0 1 228.30000000000001 322.35000000000002)" fill="rgb(96,56,19)" stroke="none" stroke-width="1"/><path id="ebuizcrlrymh12" d="M238,102.350000L270.640000,102.350000C273.731504,102.347346,276.697297,103.573582,278.884259,105.758668C281.071221,107.943755,282.300001,110.908495,282.300000,114L282.300000,186.350000C282.300000,188.559139,280.509139,190.350000,278.300000,190.350000L229.300000,190.350000C227.090861,190.350000,225.300000,188.559139,225.300000,186.350000L225.300000,115.060000C225.299998,108.044364,230.984366,102.355520,238,102.350000Z" fill="rgb(255,146,113)" stroke="none" stroke-width="1"/><rect id="ebuizcrlrymh13" width="9" height="26" rx="4.500000" ry="5" transform="matrix(1 0 0 1 249.30000000000001 83.34999999999999)" fill="rgb(96,56,19)" stroke="none" stroke-width="1"/><rect id="ebuizcrlrymh14" width="5" height="10" rx="5" ry="5" transform="matrix(1 0 0 1 270.30000000000001 56.35000000000000)" fill="rgb(96,56,19)" stroke="none" stroke-width="1"/><rect id="ebuizcrlrymh15" width="5" height="10" rx="1.540000" ry="5" transform="matrix(1 0 0 1 231.30000000000001 56.35000000000000)" fill="rgb(96,56,19)" stroke="none" stroke-width="1"/><path id="ebuizcrlrymh16" d="M238.470000,34.350000L268.660000,34.350000C269.627123,34.349996,270.554490,34.734868,271.237411,35.419664C271.920331,36.104461,272.302657,37.032881,272.300000,38L272.300000,58.350000L234.300000,58.350000L234.300000,38.520000C234.300000,36.216973,236.166973,34.350000,238.470000,34.350000Z" fill="rgb(0,0,0)" stroke="none" stroke-width="1"/><path id="ebuizcrlrymh17" d="M261.810000,89.350000L245.550000,89.350000C239.336797,89.350000,234.300000,84.313203,234.300000,78.100000L234.300000,47C234.300000,45.246919,234.996409,43.565640,236.236024,42.326024C237.475640,41.086409,239.156919,40.390000,240.910000,40.390000L265.450000,40.390000C267.266733,40.390000,269.009057,41.111694,270.293681,42.396319C271.578306,43.680943,272.300000,45.423267,272.300000,47.240000L272.300000,78.860000C272.300000,81.642121,271.194807,84.310294,269.227550,86.277550C267.260293,88.244807,264.592121,89.350000,261.810000,89.350000Z" fill="rgb(117,76,36)" stroke="none" stroke-width="1"/><rect id="ebuizcrlrymh18" width="2" height="35" rx="1" ry="0" transform="matrix(1 0 0 1 265.30000000000001 39.35000000000000)" fill="rgb(0,0,0)" stroke="none" stroke-width="1"/><rect id="ebuizcrlrymh19" width="2" height="35" rx="1" ry="0" transform="matrix(1 0 0 1 261.30000000000001 39.35000000000000)" fill="rgb(0,0,0)" stroke="none" stroke-width="1"/><circle id="ebuizcrlrymh20" r="1" transform="matrix(1 0 0 1 243.30000000000001 59.35000000000000)" fill="rgb(0,0,0)" stroke="none" stroke-width="1"/><rect id="ebuizcrlrymh21" width="5" height="8" rx="5" ry="0" transform="matrix(1 0 0 1 250.30000000000001 63.75477649000000)" fill="rgb(166,124,82)" stroke="none" stroke-width="1"/><rect id="ebuizcrlrymh22" width="9" height="3" rx="1.500000" ry="5" transform="matrix(1 0 0 1 248.30000000000001 75.34999999999999)" fill="rgb(242,242,242)" stroke="none" stroke-width="1"/><rect id="ebuizcrlrymh23" width="55" height="6" rx="0" ry="0" transform="matrix(1 0 0 1 226.30000000000001 126.34999999999999)" fill="rgb(255,69,0)" stroke="none" stroke-width="1"/><rect id="ebuizcrlrymh24" width="57" height="27" rx="0.730000" ry="0" transform="matrix(1 0 0 1 225.30000000000001 187.34999999999999)" fill="rgb(51,51,51)" stroke="none" stroke-width="1"/><ellipse id="ebuizcrlrymh25" rx="28" ry="17" transform="matrix(1 0 0 1 254.30000000000001 204.34999999999999)" fill="rgb(51,51,51)" stroke="none" stroke-width="1"/><rect id="ebuizcrlrymh26" width="15" height="137" rx="5.280000" ry="5" transform="matrix(1 0 0 1 225.30000000000001 207.34999999999999)" fill="rgb(51,51,51)" stroke="none" stroke-width="1"/><rect id="ebuizcrlrymh27" width="15" height="137" rx="4.120000" ry="5" transform="matrix(1 0 0 1 267.30000000000001 207.34999999999999)" fill="rgb(51,51,51)" stroke="none" stroke-width="1"/><path id="ebuizcrlrymh28" d="M232.750000,359.800000L232.750000,359.800000C235.282817,359.800000,237.711897,360.806158,239.502870,362.597130C241.293842,364.388103,242.300000,366.817183,242.300000,369.350000L242.300000,369.350000L224.300000,369.350000L224.300000,368.250000C224.300000,363.583194,228.083194,359.800000,232.750000,359.800000Z" fill="rgb(128,128,128)" stroke="none" stroke-width="1"/><path id="ebuizcrlrymh29" d="M224.300000,369.350000L242.300000,369.350000L242.300000,371.510000C242.300000,371.973919,241.923919,372.350000,241.460000,372.350000L225.240000,372.350000C224.720852,372.350000,224.300000,371.929148,224.300000,371.410000L224.300000,369.350000Z" fill="rgb(204,204,204)" stroke="none" stroke-width="1"/><rect id="ebuizcrlrymh30" width="9" height="15" rx="0" ry="0" transform="matrix(1 0 0 1 270.30000000000001 349.35000000000002)" fill="rgb(0,0,0)" stroke="none" stroke-width="1"/><path id="ebuizcrlrymh31" d="M274.750000,359.800000L274.750000,359.800000C277.282817,359.800000,279.711897,360.806158,281.502870,362.597130C283.293842,364.388103,284.300000,366.817183,284.300000,369.350000L284.300000,369.350000L266.300000,369.350000L266.300000,368.250000C266.300000,363.583194,270.083194,359.800000,274.750000,359.800000Z" fill="rgb(128,128,128)" stroke="none" stroke-width="1"/><path id="ebuizcrlrymh32" d="M266.300000,369.350000L284.300000,369.350000L284.300000,371.510000C284.300000,371.973919,283.923919,372.350000,283.460000,372.350000L267.240000,372.350000C266.720852,372.350000,266.300000,371.929148,266.300000,371.410000L266.300000,369.350000Z" fill="rgb(204,204,204)" stroke="none" stroke-width="1"/><rect id="ebuizcrlrymh33" width="9.040000" height="47.510000" rx="0" ry="0" transform="matrix(0.86000000000000 -0.52000000000000 0.52000000000000 0.86000000000000 195.90819999999999 151.96260000000001)" fill="rgb(96,56,19)" stroke="none" stroke-width="1"/><rect id="ebuizcrlrymh34" width="23.090000" height="14.120000" rx="7.060000" ry="15" transform="matrix(0.70710700000000 0.70710700000000 -0.70710700000000 0.70710700000000 226.31254950000005 183.34124966000005)" fill="rgb(96,56,19)" stroke="none" stroke-width="1"/><rect id="ebuizcrlrymh35" width="17.360000" height="16.150000" rx="0" ry="0" transform="matrix(0.46221300000000 0.88676900000000 -0.88676900000000 0.46221300000000 238.12039066000003 193.06596678000005)" fill="rgb(51,51,51)" stroke="none" stroke-width="1"/><g id="ebuizcrlrymh36_tr" transform="translate(318.240196,107.518258) rotate(0)"><g id="ebuizcrlrymh36" transform="translate(-318.240196,-107.518258)"><rect id="ebuizcrlrymh37" width="9.040000" height="47.510000" rx="0" ry="0" transform="matrix(0.98293500000000 0.18395100000000 -0.18395100000000 0.98293500000000 321.69364884000004 59.98755810000000)" fill="rgb(96,56,19)" stroke="none" stroke-width="1"/><rect id="ebuizcrlrymh38" width="23.090000" height="14.120000" rx="7.060000" ry="15" transform="matrix(-0.50000000000000 0.86602500000000 -0.86602500000000 -0.50000000000000 340.08660264499997 51.75825923500007)" fill="rgb(140,98,57)" stroke="none" stroke-width="1"/><rect id="ebuizcrlrymh39" width="12.480000" height="7.030000" rx="3.520000" ry="15" transform="matrix(0.70710700000000 0.70710700000000 -0.70710700000000 0.70710700000000 318.79881075000009 48.84320797000004)" fill="rgb(140,98,57)" stroke="none" stroke-width="1"/></g></g><path id="ebuizcrlrymh40" d="M230.310000,190.780000L230.310000,190.780000C230.803303,190.780000,231.276401,190.975964,231.625219,191.324781C231.974036,191.673599,232.170000,192.146697,232.170000,192.640000L232.170000,205.640000L229.720000,205.640000L229.720000,191.370000C229.725350,191.046394,229.986394,190.785350,230.310000,190.780000Z" transform="matrix(0.46221300000000 0.88676900000000 -0.88676900000000 0.46221300000000 299.95999999999998 -98.20000000000000)" fill="rgb(0,0,0)" stroke="none" stroke-width="1"/><path id="ebuizcrlrymh41" d="M273.130000,188.780000L275.580000,188.780000L275.580000,201.780000C275.580000,202.273303,275.384036,202.746401,275.035219,203.095219C274.686401,203.444036,274.213303,203.640000,273.720000,203.640000L273.720000,203.640000C273.560870,203.640000,273.408258,203.576786,273.295736,203.464264C273.183214,203.351742,273.120000,203.199130,273.120000,203.040000L273.120000,188.780000Z" transform="matrix(-0.46221300000000 0.88676900000000 -0.88676900000000 -0.46221300000000 575.13999999999999 43.58000000000000)" fill="rgb(0,0,0)" stroke="none" stroke-width="1"/></g></g></svg>